<?xml version="1.0" encoding="UTF-8"?>
<!DOCTYPE svg PUBLIC "-//W3C//DTD SVG 1.1//EN" "http://www.w3.org/Graphics/SVG/1.1/DTD/svg11.dtd">
<!-- Creator: CorelDRAW X8 -->
<svg xmlns="http://www.w3.org/2000/svg" xml:space="preserve" width="4000px" height="300px" version="1.1" style="shape-rendering:geometricPrecision; text-rendering:geometricPrecision; image-rendering:optimizeQuality; fill-rule:evenodd; clip-rule:evenodd"
viewBox="0 0 40000 3000"
 xmlns:xlink="http://www.w3.org/1999/xlink">
 <defs>
  <style type="text/css">
   <![CDATA[
    .fil0 {fill:#F1F1F1;fill-rule:nonzero}
   ]]>
  </style>
 </defs>
 <g id="Слой_x0020_1">
  <metadata id="CorelCorpID_0Corel-Layer"/>
  <g id="_2508347922496">
   <polygon class="fil0" points="4354,2851 4354,141 3647,141 2611,1157 3074,1640 3533,1185 3533,2851 "/>
   <path class="fil0" d="M9320 2851l0 -715 -882 0c647,-427 858,-731 858,-1101 0,-545 -459,-935 -1162,-935 -378,0 -833,126 -1146,459l447 545c207,-175 426,-281 715,-281 175,0 313,82 313,212 0,203 -118,304 -1358,1178l0 638 2215 0z"/>
   <path class="fil0" d="M12821 2900c703,0 1179,-329 1179,-813 0,-374 -342,-601 -642,-634 345,-57 597,-313 597,-601 0,-447 -382,-752 -1130,-752 -528,0 -898,183 -1138,447l386 512c187,-154 431,-236 663,-236 236,0 402,49 402,175 0,85 -114,134 -374,134 -97,0 -341,0 -394,-4l0 728c41,-4 276,-9 394,-9 362,0 419,53 419,147 0,97 -126,183 -394,183 -208,0 -524,-78 -736,-260l-402 560c227,244 634,423 1170,423z"/>
   <path class="fil0" d="M18403 2851l0 -435 313 0 0 -715 -313 0 0 -1560 -1138 0 -987 1645 0 630 1304 0 0 435 821 0zm-821 -1150l-512 0 512 -853 0 853z"/>
   <path class="fil0" d="M22131 2900c760,0 1207,-386 1207,-983 0,-541 -410,-886 -873,-886 -228,0 -435,81 -565,207l0 -382 1251 0 0 -715 -2072 0 0 1645 565 131c138,-131 296,-187 504,-187 252,0 357,101 357,223 0,114 -109,224 -382,224 -235,0 -500,-82 -686,-236l-439 577c264,240 650,382 1133,382z"/>
   <path class="fil0" d="M26923 2900c642,0 1125,-386 1125,-975 0,-577 -471,-898 -959,-898 -248,0 -491,97 -630,276 0,-4 0,-4 0,-8 0,-329 326,-472 594,-472 199,0 345,37 500,147l345 -634c-215,-147 -536,-236 -845,-236 -841,0 -1423,496 -1423,1402 0,792 403,1398 1293,1398zm-53 -723c-285,0 -398,-163 -415,-346 110,-85 244,-109 382,-109 163,0 378,60 378,235 0,114 -138,220 -345,220z"/>
   <polygon class="fil0" points="31716,2851 32618,710 32618,141 30403,141 30403,856 31675,856 30818,2851 "/>
   <path class="fil0" d="M36182 2900c602,0 1207,-219 1207,-772 0,-293 -211,-545 -520,-675 284,-118 475,-309 475,-626 0,-532 -605,-727 -1162,-727 -557,0 -1162,195 -1162,727 0,317 187,508 471,626 -309,130 -516,382 -516,675 0,553 606,772 1207,772zm0 -1764c-166,-24 -329,-101 -329,-187 0,-109 122,-183 329,-183 203,0 325,74 325,183 0,86 -158,163 -325,187zm0 1098c-231,0 -374,-86 -374,-200 0,-105 199,-187 374,-211 171,24 374,106 374,211 0,114 -150,200 -374,200z"/>
  </g>
 </g>
</svg>
