<?xml version="1.0" encoding="UTF-8"?>
<!DOCTYPE svg PUBLIC "-//W3C//DTD SVG 1.1//EN" "http://www.w3.org/Graphics/SVG/1.1/DTD/svg11.dtd">
<!-- Creator: CorelDRAW X8 -->
<svg xmlns="http://www.w3.org/2000/svg" xml:space="preserve" width="1000px" height="1000px" version="1.1" style="shape-rendering:geometricPrecision; text-rendering:geometricPrecision; image-rendering:optimizeQuality; fill-rule:evenodd; clip-rule:evenodd"
viewBox="0 0 10000 10000"
 xmlns:xlink="http://www.w3.org/1999/xlink">
 <defs>
  <style type="text/css">
   <![CDATA[
    .str0 {stroke:silver;stroke-width:20.8347;stroke-linecap:round}
    .fil3 {fill:none}
    .fil1 {fill:black}
    .fil4 {fill:black}
    .fil2 {fill:silver}
    .fil0 {fill:#FFDE00}
    .fil5 {fill:#FFDE00}
   ]]>
  </style>
   <clipPath id="id0">
    <rect x="10663" y="-317" width="4522" height="8226"/>
   </clipPath>
 </defs>
 <g id="Слой_x0020_1">
  <metadata id="CorelCorpID_0Corel-Layer"/>
  <g id="_2508347897664">
   <path class="fil0" d="M239 142c-77,0 -139,62 -139,139l0 44c0,4 3,8 7,8l15 0 0 183c0,4 3,7 7,7l220 0c4,0 8,-3 8,-7l0 -183 14 0c4,0 8,-4 8,-8l0 -44c0,-77 -63,-139 -140,-139zm103 367l-205 0 0 -176 205 0 0 176zm0 -191l-205 0 0 -15 205 0 0 15zm0 -29l-205 0 0 -15 205 0 0 15zm22 29l-7 0 0 -51c0,-5 -4,-8 -8,-8l-220 0c-4,0 -7,3 -7,8l0 51 -7 0 0 -37c0,-69 55,-124 124,-124 69,0 125,55 125,124l0 37z"/>
   <path class="fil0" d="M159 487l161 0c4,0 7,-4 7,-8l0 -117c0,-4 -3,-7 -7,-7l-161 0c-4,0 -8,3 -8,7l0 117c0,4 4,8 8,8zm7 -118l147 0 0 103 -147 0 0 -103z"/>
   <path class="fil0" d="M503 378c-4,0 -6,-4 -6,-7l11 -131c2,-20 -13,-38 -33,-39 -2,0 -3,0 -4,0l-9 0c-20,0 -37,16 -37,36 0,1 0,2 0,3l11 131c0,3 -2,7 -5,7 -22,7 -38,27 -38,50l0 88c0,4 4,7 8,7l132 0c4,0 7,-3 7,-7l0 -88c0,-23 -15,-43 -37,-50zm-84 24l0 0c4,-4 10,-8 16,-9 10,-3 17,-13 16,-23l-11 -131c-1,-12 8,-23 20,-24 1,0 1,0 2,0l9 0c13,0 22,10 22,22 0,1 0,1 0,2l-10 131c-1,10 6,20 16,23 13,3 23,14 26,28l-116 0c1,-8 5,-14 10,-19zm106 107l-14 0 0 -30c0,-4 -4,-7 -8,-7 -4,0 -7,3 -7,7l0 30 -29 0 0 -52c0,-4 -4,-7 -8,-7 -4,0 -7,3 -7,7l0 52 -15 0 0 -30c0,-4 -3,-7 -7,-7 -4,0 -7,3 -7,7l0 30 -15 0 0 -74 117 0 0 74z"/>
   <circle class="fil0" cx="467" cy="237" r="15"/>
   <path class="fil0" d="M234 386c0,0 0,0 0,0l0 0c-4,5 -24,28 -24,42 0,16 13,29 29,29 17,0 30,-13 30,-29 0,-14 -20,-37 -24,-42 -3,-3 -8,-3 -11,0zm5 57c-8,0 -14,-7 -14,-15 0,-5 7,-16 14,-25 8,9 15,20 15,25 0,8 -7,15 -15,15z"/>
   <path class="fil0" d="M1059 396c4,0 7,-4 7,-7l0 -98 21 0c19,0 35,-16 35,-35 0,-20 -16,-35 -35,-35 -19,0 -35,15 -35,35l0 21 -28 0 0 -21c0,-20 -16,-35 -35,-35 -19,0 -35,15 -35,35 0,19 16,35 35,35l21 0 0 98c0,3 3,7 7,7 4,0 7,-4 7,-7l0 -98 28 0 0 98c0,3 3,7 7,7zm7 -140c0,-12 9,-21 21,-21 12,0 21,9 21,21 0,11 -9,21 -21,21l-21 0 0 -21zm-56 21l-21 0c-12,0 -21,-10 -21,-21 0,-12 9,-21 21,-21 12,0 21,9 21,21l0 21z"/>
   <path class="fil0" d="M878 137l27 23c1,1 3,2 4,2 2,0 4,-1 6,-3 2,-3 2,-7 -1,-10l-27 -22c-3,-3 -7,-2 -10,1 -2,3 -2,7 1,9z"/>
   <path class="fil0" d="M883 198l-33 -11c-4,-2 -8,0 -9,4 -2,3 0,7 4,9l33 12c1,0 1,0 2,0 3,0 6,-2 7,-5 1,-3 -1,-7 -4,-9z"/>
   <path class="fil0" d="M1167 162c1,0 3,-1 4,-2l27 -23c3,-2 3,-7 1,-9 -3,-3 -7,-4 -10,-1l-27 22c-3,3 -3,7 -1,10 2,2 4,3 6,3z"/>
   <path class="fil0" d="M870 256l-35 0c-4,0 -7,3 -7,7 0,3 3,7 7,7l35 0c4,0 7,-4 7,-7 0,-4 -3,-7 -7,-7z"/>
   <path class="fil0" d="M1235 191c-1,-4 -5,-6 -9,-4l-33 11c-3,2 -5,6 -4,9 1,3 4,5 7,5 1,0 1,0 2,0l33 -12c4,-2 6,-6 4,-9z"/>
   <path class="fil0" d="M1038 123c-77,0 -140,62 -140,140 0,59 23,103 73,138 0,0 1,1 1,1 0,0 8,4 10,16 -8,3 -14,11 -14,20 0,5 2,10 5,14 -3,3 -5,8 -5,14 0,5 2,10 5,14 -3,3 -5,8 -5,14 0,11 9,21 21,21 4,0 7,-4 7,-7 0,-4 -3,-7 -7,-7 -4,0 -7,-4 -7,-7 0,-4 3,-7 7,-7l70 0c4,0 7,-4 7,-7 0,-4 -3,-7 -7,-7l-70 0c-4,0 -7,-4 -7,-7 0,-4 3,-7 7,-7l70 0c4,0 7,-4 7,-7 0,-4 -3,-7 -7,-7l-70 0c-4,0 -7,-4 -7,-7 0,-4 3,-7 7,-7l70 0c4,0 7,-4 7,-7 0,-4 -3,-7 -7,-7l-63 0c-3,-18 -14,-26 -17,-27 -46,-33 -67,-73 -67,-127 0,-70 57,-126 126,-126 69,0 126,56 126,126 0,54 -21,94 -67,127 -3,1 -17,11 -17,34 0,3 3,7 7,7 4,0 7,3 7,7 0,3 -3,7 -7,7 -4,0 -7,3 -7,7 0,3 3,7 7,7 4,0 7,3 7,7 0,3 -3,7 -7,7 -4,0 -7,3 -7,7 0,3 3,7 7,7 4,0 7,3 7,7 0,4 -3,7 -7,7l-70 0c-4,0 -7,3 -7,7l0 14c0,11 9,21 21,21l14 0c12,0 21,-10 21,-21l0 -7 21 0c12,0 21,-10 21,-21 0,-6 -2,-11 -5,-14 3,-4 5,-9 5,-14 0,-6 -2,-11 -5,-14 3,-4 5,-9 5,-14 0,-9 -6,-17 -14,-20 2,-12 10,-16 10,-16 0,0 1,-1 1,-1 50,-35 73,-79 73,-138 0,-78 -63,-140 -140,-140zm14 399c0,3 -3,7 -7,7l-14 0c-4,0 -7,-4 -7,-7l0 -7 28 0 0 7z"/>
   <path class="fil0" d="M1241 256l-35 0c-4,0 -7,3 -7,7 0,3 3,7 7,7l35 0c4,0 7,-4 7,-7 0,-4 -3,-7 -7,-7z"/>
   <path class="fil0" d="M1916 222l0 -84c0,-4 -3,-7 -7,-7 -4,0 -7,3 -7,7l0 77 -49 0 0 -14c0,-4 -3,-7 -7,-7l-35 0 0 -24c0,-4 -3,-7 -6,-7l-15 0 0 -18 77 0c4,0 7,-3 7,-7l0 -31c0,-4 -3,-7 -7,-7l-188 0c-4,0 -7,3 -7,7l0 31c0,4 3,7 7,7l77 0 0 18 -14 0c-4,0 -7,3 -7,7l0 24 -35 0c-4,0 -7,3 -7,7l0 14c-73,4 -132,63 -136,136l-14 0c-4,0 -7,3 -7,7l0 42c0,4 3,7 7,7l125 0c4,0 7,-3 7,-7l0 -42c0,-4 -3,-7 -7,-7l-13 0c3,-19 18,-35 38,-38l0 14c0,3 3,6 7,6l146 0c4,0 7,-3 7,-6l0 -14 49 0 0 45c0,4 3,7 7,7 4,0 7,-3 7,-7l0 -52c0,0 0,0 0,0l0 -84c0,0 0,0 0,0zm-223 77c-27,3 -49,25 -52,52l-27 0c-4,0 -7,3 -7,6 0,0 0,1 0,1 0,0 0,0 0,0 0,4 3,7 7,7l48 0 0 28 -112 0 0 -28 30 0c4,0 7,-3 7,-7l0 0c0,0 0,0 0,0 0,-4 -3,-7 -7,-7l-9 0c3,-66 56,-119 122,-122l0 70zm-7 -168l0 -17 174 0 0 17 -76 0c0,0 0,0 0,0l-21 0c0,0 0,0 0,0l-77 0zm91 14l0 18 -8 0 0 -18 8 0zm-29 31l1 0 14 0c0,0 0,0 0,0l21 0c0,0 0,0 0,0l14 0 0 18 -50 0 0 -18zm-41 144l0 -14c0,0 0,0 0,0l0 -84c0,0 0,0 0,0l0 -14 35 0c0,0 0,0 0,0l63 0c0,0 0,0 0,0l35 0 0 112 -133 0zm195 -21l-49 0 0 -70 49 0 0 70z"/>
   <path class="fil0" d="M1805 226l-63 0c-4,0 -7,3 -7,6 0,4 3,7 7,7l63 0c3,0 6,-3 6,-7 0,-3 -3,-6 -6,-6z"/>
   <path class="fil0" d="M1805 288l-63 0c-4,0 -7,3 -7,7 0,4 3,7 7,7l63 0c3,0 6,-3 6,-7 0,-4 -3,-7 -6,-7z"/>
   <path class="fil0" d="M1819 257l-92 0c-3,0 -7,3 -7,7 0,4 4,7 7,7l92 0c4,0 7,-3 7,-7 0,-4 -3,-7 -7,-7z"/>
   <path class="fil0" d="M1644 501l-32 -61c-2,-2 -4,-4 -6,-4 -3,0 -5,2 -6,4l-33 61c-3,6 -5,13 -5,21 0,24 20,43 44,43 24,0 43,-19 43,-43 0,-8 -2,-15 -5,-21zm-38 50c-17,0 -30,-13 -30,-29 0,-5 1,-10 3,-15l27 -49 26 49c0,0 0,0 0,0 2,5 3,10 3,15 0,16 -13,29 -29,29z"/>
   <path class="fil0" d="M2546 454c-12,0 -21,9 -21,21 0,11 9,21 21,21 11,0 20,-10 20,-21 0,-12 -9,-21 -20,-21zm0 29c-5,0 -9,-3 -9,-8 0,-5 4,-9 9,-9 4,0 8,4 8,9 0,5 -4,8 -8,8z"/>
   <path class="fil0" d="M2601 474c0,-15 -6,-29 -18,-39l-123 -112 109 -109c1,0 1,0 2,-1l24 -12c3,-2 5,-5 6,-9 0,-3 -1,-7 -3,-9l-27 -27c-3,-3 -6,-4 -10,-3 -4,0 -7,2 -8,6l-13 23c0,1 0,2 -1,2l-51 52c-3,2 -3,6 0,9 2,2 6,2 8,0l48 -48 12 13 -121 121 -12 -13 53 -53c2,-2 2,-6 0,-8 -3,-3 -7,-3 -9,0l-38 38 -42 -37c12,-34 3,-72 -22,-98 -27,-26 -66,-35 -101,-21 -2,1 -3,2 -3,4 -1,2 0,4 1,6l48 48c2,1 3,3 3,5 0,2 -1,4 -3,6l-31 31c-1,1 -3,2 -5,2 -2,0 -4,-1 -6,-2l-48 -48c-1,-2 -3,-2 -5,-2 -2,0 -4,2 -5,4 -13,35 -5,74 22,100 25,25 62,34 95,23l32 35c-1,3 -3,6 -6,9 -9,9 -23,12 -35,7 -2,-1 -5,0 -7,2l-75 75c-20,20 -20,53 0,73 10,10 23,16 37,16 14,0 27,-6 37,-16l75 -75c2,-2 2,-4 1,-6 -4,-13 -2,-27 8,-36 9,-9 23,-12 35,-7 2,1 5,0 7,-2l14 -14c4,-4 7,-10 7,-16 0,-6 -3,-11 -7,-16l-6 -6 7 -7 124 112c9,8 14,18 14,30 0,12 -4,23 -12,31 -9,8 -20,13 -31,13 -12,-1 -23,-6 -31,-14l-92 -101c-2,-2 -6,-3 -8,0 -3,2 -3,6 -1,8l92 101c10,11 24,18 39,18 1,0 1,0 2,0 14,0 28,-6 38,-16 11,-11 17,-25 16,-40zm-50 -286l12 -23 25 25 -22 12 -15 -14zm-218 117c-1,-2 -4,-3 -6,-2 -30,11 -64,4 -87,-19 -20,-20 -28,-50 -21,-77l41 41c3,3 8,5 14,5 5,0 10,-2 14,-5l31 -32c4,-3 6,-8 6,-14 0,-5 -2,-10 -6,-14l-41 -41c28,-7 57,1 78,22 23,23 30,58 18,88 -1,2 0,5 2,7l44 40 -6 6 -6 -6c-4,-5 -10,-7 -16,-7 -6,0 -11,2 -16,7l-14 14c-2,1 -2,4 -1,6 1,4 2,9 2,13l-30 -32zm108 64l-11 11c-16,-5 -33,0 -45,12l0 0c-12,11 -16,28 -11,44l-73 73c-7,7 -17,11 -28,11 -11,0 -21,-4 -28,-11 -16,-16 -16,-41 0,-57l72 -72c16,4 33,0 45,-12 12,-11 16,-29 11,-44l12 -12c4,-4 10,-4 14,0l11 11 21 21 10 10c4,4 4,11 0,15z"/>
   <path class="fil0" d="M2330 403c-3,-2 -7,-2 -9,0l-58 58c-3,2 -3,6 0,9 1,1 3,2 4,2 2,0 3,-1 4,-2l59 -58c2,-3 2,-7 0,-9z"/>
   <path class="fil0" d="M2351 424c-2,-2 -6,-2 -9,0l-58 59c-2,2 -2,6 0,8 1,1 3,2 5,2 1,0 3,-1 4,-2l58 -58c2,-2 2,-6 0,-9z"/>
   <path class="fil1" d="M1947 1424l-79 0c-4,-16 -16,-28 -31,-32l0 -111c0,-6 -5,-11 -11,-11 -6,0 -11,5 -11,11l0 111c-19,5 -33,22 -33,43 0,24 20,44 44,44 20,0 38,-14 42,-33l79 0c6,0 11,-5 11,-11 0,-6 -5,-11 -11,-11zm-121 33c-12,0 -22,-10 -22,-22 0,-12 10,-22 22,-22 12,0 22,10 22,22 0,12 -10,22 -22,22z"/>
   <path class="fil1" d="M2058 1210l45 46c3,2 5,3 8,3 3,0 6,-1 8,-3 35,-35 35,-92 0,-127 -35,-35 -92,-35 -126,0 -2,2 -4,5 -4,8 0,3 2,6 4,8l50 50 -19 19c-52,-48 -122,-76 -198,-76 -76,0 -145,28 -198,76l-19 -19 50 -50c3,-2 4,-5 4,-8 0,-3 -1,-6 -4,-8 -34,-35 -91,-35 -126,0 -35,35 -35,92 0,127 2,2 5,3 8,3 3,0 6,-1 8,-3l45 -46 18 19c-51,53 -83,126 -83,206 0,109 59,204 146,256l-33 33c-4,5 -4,12 0,16 2,2 5,3 8,3 3,0 6,-1 8,-3l38 -38c39,19 83,30 130,30 47,0 91,-11 130,-30l38 38c2,2 5,3 8,3 3,0 6,-1 8,-3 4,-4 4,-11 0,-16l-33 -33c87,-52 146,-147 146,-256 0,-80 -32,-153 -83,-206l18 -19zm45 -65c24,23 26,60 8,87l-94 -94c26,-19 63,-17 86,7zm-562 87c-18,-27 -16,-64 8,-87 23,-24 60,-26 86,-7l-94 94zm285 478c-152,0 -275,-123 -275,-275 0,-152 123,-275 275,-275 152,0 275,123 275,275 0,152 -123,275 -275,275z"/>
   <path class="fil1" d="M2045 1308c-22,-38 -54,-70 -92,-92 0,0 0,0 0,0 -1,0 -1,0 -1,-1 -37,-21 -80,-33 -126,-33 -46,0 -89,12 -126,33 0,1 0,1 -1,1 0,0 0,0 0,0 -38,22 -70,54 -92,92 0,0 0,0 0,0 0,0 0,1 0,1 -22,37 -34,80 -34,126 0,46 12,89 34,126 0,0 0,0 0,0 0,1 0,1 0,1 22,38 54,70 92,92 0,0 0,0 0,0 1,0 1,0 1,0 37,22 80,34 126,34 46,0 89,-12 126,-34 0,0 0,0 1,0 0,0 0,0 0,0 38,-22 70,-54 92,-92 0,0 0,0 0,-1 0,0 0,0 0,0 22,-37 34,-80 34,-126 0,-46 -12,-89 -34,-126 0,0 0,0 0,-1 0,0 0,0 0,0zm-94 321l-5 -9c-3,-5 -10,-7 -15,-4 -6,3 -7,10 -4,15l5 9c-29,15 -61,24 -95,25l0 -10c0,-6 -5,-11 -11,-11 -6,0 -11,5 -11,11l0 10c-34,-1 -66,-10 -95,-25l6 -9c3,-5 1,-12 -5,-15 -5,-3 -12,-1 -15,4l-5 9c-28,-18 -51,-42 -69,-69l9 -6c5,-3 7,-9 4,-15 -3,-5 -10,-7 -15,-4l-9 6c-15,-29 -24,-61 -26,-95l11 0c6,0 11,-5 11,-11 0,-6 -5,-11 -11,-11l-11 0c2,-34 11,-66 26,-95l9 5c2,1 4,2 5,2 4,0 8,-2 10,-6 3,-5 1,-12 -4,-15l-9 -5c18,-28 41,-51 69,-69l5 9c2,3 6,5 10,5 2,0 4,0 5,-1 6,-3 8,-10 4,-15l-5 -9c29,-15 61,-24 95,-26l0 11c0,6 5,11 11,11 6,0 11,-5 11,-11l0 -11c34,2 66,11 95,26l-5 9c-4,5 -2,12 4,15 1,1 3,1 5,1 4,0 8,-2 10,-5l5 -9c28,18 51,41 69,69l-9 5c-5,3 -7,10 -4,15 2,4 6,6 10,6 1,0 3,-1 5,-2l9 -5c15,29 24,61 26,95l-11 0c-6,0 -11,5 -11,11 0,6 5,11 11,11l11 0c-2,34 -11,66 -26,95l-9 -6c-5,-3 -12,-1 -15,4 -3,6 -1,12 4,15l9 6c-18,27 -41,51 -69,69z"/>
   <path class="fil1" d="M677 1723l-68 0 0 -21c0,-47 -13,-84 -38,-108 -32,-32 -71,-32 -73,-32l-51 0 0 -31c0,0 0,-1 0,-1 33,-14 53,-36 66,-55 19,-30 23,-59 23,-61 1,0 1,-1 1,-1l0 -2c7,-2 13,-6 18,-11 14,-16 13,-41 12,-51 -1,-7 -4,-14 -10,-18 -6,-5 -14,-7 -20,-7l0 -19c0,-3 -1,-6 -4,-9l-21 -20 0 -23c0,-3 -1,-6 -3,-8 -3,-2 -29,-21 -115,-21 -87,0 -112,19 -115,21 -2,2 -4,5 -4,8l0 23 -21 20c-1,1 -2,3 -2,4 -1,2 -1,3 -1,4l0 20c-7,0 -15,2 -21,7 -6,4 -9,11 -10,18 -1,10 -2,35 12,51 5,5 12,9 19,11l0 2c0,0 0,1 0,1 0,2 4,31 24,61 12,19 33,41 65,55 0,0 0,1 0,1l0 31 -50 0c-2,0 -42,0 -74,32 -25,24 -37,61 -37,108l0 21 -69 0c-5,0 -10,4 -10,10 0,6 5,10 10,10l567 0c6,0 10,-4 10,-10 0,-6 -4,-10 -10,-10zm-89 -21l0 21 -50 0 0 -129c6,3 13,8 19,14 21,21 31,52 31,94zm-302 21l-16 0 0 -138c7,-2 13,-2 16,-3l0 141zm20 -141l11 0c4,39 37,69 77,69 39,0 72,-30 76,-69l11 0 0 141 -175 0 0 -141zm196 0c3,1 9,1 16,3l0 138 -16 0 0 -141zm43 -235c1,0 2,2 2,4 1,12 0,27 -7,35 -1,2 -2,2 -3,3l0 -45c3,0 6,1 8,3zm-151 -103c35,0 59,4 75,7 -84,17 -133,8 -155,1 16,-4 41,-8 80,-8zm-147 142c-7,-8 -8,-23 -7,-35 0,-2 1,-4 2,-4 2,-2 6,-3 9,-3l0 45c-1,0 -3,-1 -4,-3zm45 78c-16,-24 -20,-48 -21,-52l0 -104 21 -20c2,-2 4,-4 4,-7l0 -14c11,5 38,14 84,14 29,0 66,-3 112,-14l0 14c0,3 1,5 3,7l21 20 0 104c0,4 -5,28 -21,52 -22,35 -56,54 -100,57l-2 0c-44,-3 -78,-22 -101,-57zm58 118c6,0 10,-4 10,-10l0 -36c10,3 20,5 32,5 0,0 0,0 0,0l3 0c0,0 0,0 1,0 11,0 22,-2 31,-5l0 36c0,6 5,10 10,10l13 0c-4,28 -28,49 -56,49 -29,0 -53,-21 -56,-49l12 0zm-151 120c0,-66 27,-95 51,-109l0 130 -51 0 0 -21z"/>
   <circle class="fil1" cx="322" cy="1329" r="12"/>
   <circle class="fil1" cx="465" cy="1329" r="12"/>
   <path class="fil1" d="M391 1400l5 0c14,0 24,-11 24,-24 0,-6 -4,-10 -10,-10 -5,0 -10,4 -10,10 0,2 -2,4 -4,4l-5 0c-2,0 -4,-2 -4,-4 0,-6 -4,-10 -10,-10 -6,0 -10,4 -10,10 0,13 11,24 24,24z"/>
   <path class="fil1" d="M231 1283c6,0 10,-4 10,-10 0,-83 68,-150 150,-150 83,0 150,67 150,150 0,6 4,10 10,10 6,0 10,-4 10,-10 0,-94 -76,-170 -170,-170 -94,0 -170,76 -170,170 0,6 5,10 10,10z"/>
   <path class="fil1" d="M321 1161l0 40c0,6 5,11 11,11 5,0 10,-5 10,-11l0 -40c0,-6 -5,-10 -10,-10 -6,0 -11,4 -11,10z"/>
   <path class="fil1" d="M381 1149l0 47c0,6 5,10 10,10 6,0 10,-4 10,-10l0 -47c0,-6 -4,-11 -10,-11 -5,0 -10,5 -10,11z"/>
   <path class="fil1" d="M441 1161l0 40c0,6 4,11 10,11 5,0 10,-5 10,-11l0 -40c0,-6 -5,-10 -10,-10 -6,0 -10,4 -10,10z"/>
   <path class="fil1" d="M456 1454c4,-5 3,-11 -1,-14 -5,-4 -11,-3 -14,1 -1,0 -13,14 -45,14 -33,0 -49,-14 -50,-15 -4,-4 -11,-3 -14,1 -4,4 -4,10 0,14 1,1 22,20 64,20 42,0 59,-19 60,-21z"/>
   <path class="fil1" d="M3522 1413c-11,0 -21,-10 -21,-21 0,-11 10,-21 21,-21 12,0 21,10 21,21l20 0c0,-19 -13,-35 -31,-40l0 -22 -20 0 0 22c-18,5 -31,21 -31,40 0,23 18,41 41,41 12,0 21,10 21,21 0,11 -9,21 -21,21 -11,0 -21,-10 -21,-21l-20 0c0,19 13,35 31,40l0 22 20 0 0 -22c18,-5 31,-21 31,-40 0,-23 -18,-41 -41,-41z"/>
   <path class="fil1" d="M3474 1103l-365 0 0 227 -93 0c-28,0 -51,23 -51,52 0,28 23,51 51,51l33 0c-1,4 -2,7 -2,11 0,17 14,31 31,31l31 0 0 268 496 0 0 -531 -131 -109zm7 32l85 71 -85 0 0 -71zm-392 216l237 0 0 62 -237 0 0 -62zm-73 62c-17,0 -31,-14 -31,-31 0,-17 14,-31 31,-31l52 0 0 62 -52 0zm568 309l-454 0 0 -247 93 0 0 -21 -145 0c-5,0 -10,-5 -10,-10 0,-6 5,-11 10,-11l302 0 91 -51 -91 -52 -250 0 0 -206 330 0 0 103 124 0 0 495zm-237 -309l0 -62 20 0 0 62 -20 0zm41 -8l0 -47 41 24 -41 23z"/>
   <path class="fil1" d="M3151 1144l0 104 268 0 0 -104 -268 0zm247 83l-227 0 0 -62 227 0 0 62z"/>
   <rect class="fil1" x="3192" y="1186" width="20.6454" height="20.6454"/>
   <rect class="fil1" x="3233" y="1186" width="20.6454" height="20.6454"/>
   <rect class="fil1" x="3274" y="1186" width="20.6454" height="20.6454"/>
   <rect class="fil1" x="3316" y="1186" width="20.6454" height="20.6454"/>
   <rect class="fil1" x="3357" y="1186" width="20.6454" height="20.6454"/>
   <rect class="fil1" x="3151" y="1537" width="412.906" height="20.6454"/>
   <path class="fil1" d="M3357 1578l0 124 206 0 0 -124 -206 0zm186 103l-165 0 0 -82 165 0 0 82z"/>
   <rect class="fil1" x="3151" y="1578" width="185.808" height="20.6454"/>
   <rect class="fil1" x="3151" y="1619" width="185.808" height="20.6454"/>
   <rect class="fil1" x="3151" y="1660" width="185.808" height="20.6454"/>
   <g>
    <path class="fil2" d="M400 2390c0,83 -67,150 -150,150 -83,0 -150,-67 -150,-150 0,-83 67,-150 150,-150 83,0 150,67 150,150zm-59 -91c-23,-24 -55,-38 -91,-38 -36,0 -68,14 -91,38l0 0c-24,23 -38,55 -38,91 0,36 14,68 38,91l0 0c23,24 55,38 91,38 36,0 68,-14 91,-38 24,-23 38,-55 38,-91 0,-36 -14,-68 -38,-91l0 0z"/>
   </g>
   <polyline class="fil3 str0" points="275,2315 200,2390 275,2465 "/>
   <g>
    <path class="fil2" d="M880 2261c-36,0 -68,14 -91,38l0 0c-24,23 -38,55 -38,91 0,36 14,68 38,91l0 0c23,24 55,38 91,38 36,0 68,-14 91,-38 24,-23 38,-55 38,-91 0,-36 -14,-68 -38,-91l0 0c-23,-24 -55,-38 -91,-38zm-150 129c0,83 67,150 150,150 83,0 150,-67 150,-150 0,-83 -67,-150 -150,-150 -83,0 -150,67 -150,150z"/>
   </g>
   <polyline class="fil3 str0" points="855,2315 930,2390 855,2465 "/>
   <rect class="fil4" x="1423" y="2310" width="34.2874" height="160.004"/>
   <rect class="fil4" transform="matrix(3.02695E-14 -1.14291 1.14292 3.02696E-14 1359.98 2407.14)" width="30" height="139.996"/>
   <g>
    <path class="fil1" d="M1970 2270c66,0 120,54 120,120 0,66 -54,120 -120,120 -66,0 -120,-54 -120,-120 0,-66 54,-120 120,-120zm70 50c-18,-18 -43,-29 -70,-29 -27,0 -52,11 -70,29l0 0c-18,18 -29,43 -29,70 0,27 11,52 29,70l0 0c18,18 43,29 70,29 27,0 52,-11 70,-29 18,-18 29,-43 29,-70 0,-27 -11,-52 -29,-70l0 0z"/>
   </g>
   <rect class="fil4" x="1960" y="2335" width="19.9961" height="99.9922"/>
   <rect class="fil4" transform="matrix(2.64845E-14 -1 1 2.64845E-14 1919.99 2395.01)" width="19.9961" height="99.9922"/>
   <g>
    <path class="fil1" d="M2402 2270c66,0 120,54 120,120 0,66 -54,120 -120,120 -67,0 -120,-54 -120,-120 0,-66 53,-120 120,-120zm70 50c-18,-18 -43,-29 -70,-29 -28,0 -53,11 -71,29l0 0c-18,18 -29,43 -29,70 0,27 11,52 29,70l0 0c18,18 43,29 71,29 27,0 52,-11 70,-29 18,-18 29,-43 29,-70 0,-27 -11,-52 -29,-70l0 0z"/>
   </g>
   <rect class="fil4" transform="matrix(2.64845E-14 -1 1 2.64845E-14 2351.52 2395.01)" width="19.9961" height="99.9922"/>
  </g>
  <g style="clip-path:url(#id0)">
   <image x="10663" y="-317" width="4522" height="8226" xlink:href="sprites_Images\sprites_ImgID1.png"/>
  </g>
  <g>
   <g>
    <path class="fil5" d="M9116 2879c210,0 381,171 381,381 0,211 -171,382 -381,382 -211,0 -382,-171 -382,-382l0 -1 70 0 0 1c0,172 139,312 312,312 172,0 311,-140 311,-312 0,-172 -139,-311 -311,-311 -63,0 -121,18 -170,50l0 0 -45 45 40 35 -125 0 0 -110 30 20 38 -30 -1 -1c64,-50 145,-79 233,-79z"/>
    <g>
     <path class="fil1" d="M9402 3522c-6,-6 -16,-6 -22,0 -6,6 -6,16 0,22 3,3 7,5 11,5 4,0 8,-2 11,-5l0 0c6,-6 6,-16 0,-22z"/>
     <path class="fil1" d="M9518 3236c-6,-97 -47,-188 -116,-257 -76,-76 -176,-117 -283,-117 -102,0 -198,37 -272,106l-17 -15c-4,-4 -11,-6 -17,-3 -5,2 -9,8 -9,14l0 117c0,9 7,16 16,16l116 0c7,0 12,-4 15,-10 2,-5 1,-12 -3,-17l-28 -29c117,-105 297,-102 409,11 116,115 116,304 0,419 -56,57 -131,87 -210,87 -79,0 -154,-30 -210,-87 -56,-56 -87,-130 -87,-209 0,-9 -7,-16 -15,-16l-72 0c-9,0 -16,7 -16,16 0,106 42,207 117,282 69,69 160,110 256,117 9,0 18,1 27,1 86,0 171,-28 240,-80 6,-5 8,-15 3,-22 -5,-7 -15,-8 -22,-3 -146,109 -353,94 -482,-35 -66,-66 -103,-152 -107,-245l40 0c4,82 38,158 96,217 128,127 336,127 464,0 128,-128 128,-337 0,-465 -128,-127 -336,-127 -464,0 -6,6 -6,16 0,22l13 14 -65 0 0 -65 2 1c6,6 16,6 21,0 70,-70 163,-108 261,-108 99,0 191,38 261,108 130,130 144,338 33,484 -6,7 -4,17 3,22 6,5 16,4 21,-3 59,-76 87,-171 81,-268z"/>
     <path class="fil1" d="M9003 3313l-48 0c2,-2 4,-4 7,-6 29,-28 43,-52 43,-74 0,-32 -22,-54 -54,-54 -30,0 -55,24 -55,54 0,9 7,16 16,16 8,0 15,-7 15,-16 0,-12 11,-23 24,-23 23,0 23,18 23,23 0,22 -42,62 -71,83 -6,4 -8,11 -6,17 2,7 8,11 15,11l91 0c8,0 15,-7 15,-15 0,-9 -7,-16 -15,-16z"/>
     <path class="fil1" d="M9117 3264l-11 0 0 -5c0,-8 -7,-15 -15,-15 -9,0 -16,7 -16,15l0 5 -21 0 35 -62c4,-7 1,-17 -6,-21 -8,-5 -17,-2 -21,6l-49 85c-3,5 -2,11 0,15 3,5 8,8 14,8l48 0 0 34c0,8 7,15 16,15 8,0 15,-7 15,-15l0 -34 11 0c9,0 16,-7 16,-16 0,-8 -7,-15 -16,-15z"/>
     <path class="fil1" d="M9215 3180c-8,-3 -17,1 -20,9l-52 134c-3,8 1,17 9,20 2,1 4,1 6,1 6,0 12,-3 15,-10l51 -134c3,-8 -1,-17 -9,-20z"/>
     <path class="fil1" d="M9340 3185c-3,-4 -8,-6 -13,-6l-66 0c-8,0 -15,7 -15,15 0,9 7,16 15,16l43 0 -42 113c-3,8 1,17 9,20 2,1 4,1 6,1 6,0 12,-4 14,-10l50 -134c2,-5 2,-10 -1,-15z"/>
    </g>
   </g>
   <g>
    <path class="fil5" d="M7802 3460l-26 159c30,7 60,11 91,11 31,0 62,-4 92,-11l-26 -159c-42,14 -89,14 -131,0z"/>
    <path class="fil5" d="M7510 3353l159 -26c-14,-42 -14,-89 0,-131l-159 -26c-8,30 -11,61 -11,92 0,31 3,61 11,91z"/>
    <path class="fil5" d="M7776 2904l26 159c42,-14 89,-14 131,0l26 -159c-30,-7 -61,-11 -92,-11 -31,0 -61,4 -91,11z"/>
    <path class="fil5" d="M8225 3170l-160 26c14,42 14,89 0,131l160 26c15,-60 15,-123 0,-183z"/>
    <g>
     <path class="fil1" d="M8159 3094c0,-1 0,-2 -1,-3 0,-1 -1,-2 -1,-2 -1,-1 -1,-2 -2,-3 -1,-1 -2,-1 -3,-2 0,0 -1,-1 -2,-1 -1,-1 -2,-1 -3,-1 -2,-1 -4,-1 -6,0 -1,0 -2,0 -3,1 -1,0 -2,1 -3,1 -1,1 -2,1 -2,2 -1,1 -2,2 -2,3 -1,0 -1,1 -2,2 0,1 0,2 -1,3 0,1 0,2 0,3 0,4 2,8 5,11 0,1 1,2 2,2 1,1 2,1 3,2 1,0 2,0 3,1 1,0 2,0 3,0 1,0 2,0 3,0 1,-1 2,-1 3,-1 1,-1 2,-1 2,-2 1,0 2,-1 3,-2 3,-3 4,-7 4,-11 0,-1 0,-2 0,-3z"/>
     <path class="fil1" d="M7719 3535c0,-1 -1,-2 -1,-3 -1,-1 -1,-2 -2,-2 0,-1 -1,-2 -2,-3 0,0 -1,-1 -2,-2 -1,0 -2,-1 -3,-1 -1,-1 -2,-1 -3,-1 -2,0 -4,0 -6,0 -1,0 -2,0 -3,1 0,0 -1,1 -2,1 -1,1 -2,2 -3,2 0,1 -1,2 -2,3 0,0 -1,1 -1,2 0,1 -1,2 -1,3 0,1 0,2 0,3 0,1 0,2 0,3 0,1 1,2 1,3 0,1 1,2 1,3 1,1 2,2 2,2 1,1 2,2 3,2 1,1 2,1 2,2 1,0 2,0 3,1 1,0 2,0 3,0 1,0 2,0 3,0 1,-1 2,-1 3,-1 1,-1 2,-1 3,-2 1,0 2,-1 2,-2 1,0 2,-1 2,-2 1,-1 1,-2 2,-3 0,-1 1,-2 1,-3 0,-1 0,-2 0,-3 0,-1 0,-2 0,-3z"/>
     <path class="fil1" d="M8251 3148c0,0 0,0 0,0 -19,-64 -54,-122 -101,-169 -47,-47 -106,-82 -169,-101 0,0 0,0 0,0 -37,-11 -75,-16 -114,-16 -38,0 -77,5 -113,16 0,0 0,0 0,0 -64,19 -122,54 -170,101 -47,47 -82,105 -100,169 0,0 0,0 0,0 -11,37 -17,75 -17,114 0,38 6,76 17,113 0,0 0,0 0,0 18,64 53,122 100,169 48,47 106,82 170,101 0,0 0,0 0,0 36,11 75,17 113,17 39,0 77,-6 114,-17 0,0 0,0 0,0 63,-19 122,-54 169,-101 47,-47 82,-105 101,-169 0,0 0,0 0,0 11,-37 16,-75 16,-113 0,-39 -5,-77 -16,-114zm-272 -172c39,16 75,39 105,69 3,4 7,8 11,12 3,3 7,5 11,5 4,0 8,-1 11,-4 6,-6 7,-16 1,-22 -4,-4 -8,-9 -12,-13 -35,-34 -77,-61 -122,-78l5 -32c106,37 189,120 227,227l-163 26c-20,-39 -52,-70 -90,-90l16 -100zm66 286c0,24 -5,49 -15,71 -1,0 -1,0 -1,0 0,0 0,0 0,0 -17,41 -50,73 -90,91 0,0 0,0 0,0 -23,10 -47,15 -72,15 -25,0 -49,-5 -71,-15 0,0 0,0 0,0 -41,-18 -73,-50 -91,-91 0,0 0,0 0,0 -10,-22 -15,-47 -15,-71 0,-25 5,-50 15,-72 0,0 0,0 0,0 0,0 0,0 0,0 18,-41 50,-73 91,-91 0,0 0,0 0,0 22,-10 46,-15 71,-15 25,0 49,5 72,15 0,0 0,0 0,0 40,18 73,50 90,91 1,0 1,0 1,0 10,22 15,47 15,72zm-178 -369c31,0 62,4 92,11l-26 159c-21,-7 -43,-10 -66,-10 -22,0 -44,3 -65,10l-26 -159c30,-7 60,-11 91,-11zm-111 83l16 100c-39,20 -70,51 -90,90l-100 -16c16,-39 39,-75 69,-105 30,-30 66,-53 105,-69zm-10 -63l5 32c-46,17 -88,44 -122,78 -35,34 -61,76 -78,122l-32 -5c37,-107 120,-190 227,-227zm-247 349c0,-31 3,-62 11,-92l159 26c-7,21 -10,43 -10,66 0,22 3,44 10,65l-159 26c-8,-30 -11,-60 -11,-91zm250 324l-3 24c-107,-37 -190,-120 -227,-227l32 -5c17,46 43,88 78,122 5,5 10,10 16,15 3,3 7,4 10,4 5,0 9,-2 12,-5 6,-7 5,-17 -1,-22 -5,-5 -10,-9 -15,-14 -30,-30 -53,-66 -69,-105l100 -16c20,39 51,70 90,90l-23 139zm118 44c-31,0 -61,-4 -91,-11l26 -159c21,7 43,10 65,10 23,0 45,-3 66,-10l26 159c-30,7 -61,11 -92,11zm112 -83l-16 -100c38,-20 70,-51 90,-90l99 16c-15,39 -39,75 -68,105 -30,30 -66,53 -105,69zm10 63l-4 -24 -1 -8c45,-17 87,-44 122,-78 34,-34 61,-76 78,-122l32 5c-38,107 -121,190 -227,227zm236 -257l-160 -26c7,-21 11,-43 11,-65 0,-23 -4,-45 -11,-66l160 -26c7,30 11,61 11,92 0,31 -4,61 -11,91z"/>
    </g>
   </g>
   <g>
    <path class="fil5" d="M800 3483l-32 -43c-3,-5 -4,-11 -2,-16l38 -90c2,-5 6,-8 12,-9l53 -8 0 -111 -53 -8c-6,-1 -10,-5 -12,-10l-38 -90c-2,-5 -1,-10 2,-15l32 -43 -78 -78 -44 31c-4,3 -10,4 -15,2l-90 -37c-5,-2 -9,-7 -10,-12l-8 -53 -110 0 -9 53c-1,5 -4,10 -9,12l-90 37c-5,2 -11,2 -15,-2l-44 -31 -78 78 32 43c3,5 4,11 2,16l-38 90c-2,5 -6,8 -12,9l-53 8 0 111 53 8c6,1 10,5 12,10l38 90c2,5 1,10 -2,15l-32 43 78 78 44 -31c3,-2 6,-3 9,-3 2,0 4,0 6,1l90 37c5,2 9,7 10,12l8 53 110 0 9 -53c1,-5 4,-10 9,-12l90 -37c5,-2 11,-2 15,2l44 31 78 -78zm-121 -43c-49,49 -114,75 -179,75 -44,0 -88,-12 -127,-35 -8,-4 -10,-14 -6,-21 0,-1 1,-2 2,-3 -8,-5 -16,-11 -23,-17 -1,0 -2,1 -2,2 -3,3 -7,5 -11,5 -4,0 -8,-2 -11,-5l-1 0c-6,-7 -6,-16 0,-23 1,0 2,-1 2,-2 -7,-7 -13,-16 -19,-24 0,0 -1,1 -2,1 -8,5 -17,2 -21,-5 -57,-99 -41,-225 40,-305 99,-99 259,-99 358,0 99,98 99,259 0,357z"/>
    <g>
     <path class="fil1" d="M344 3419l-1 -1c-6,-6 -16,-6 -22,0 -6,7 -6,16 0,23l1 0c3,3 7,5 11,5 4,0 8,-2 11,-5 6,-6 6,-16 0,-22z"/>
     <path class="fil1" d="M679 3083c-99,-99 -259,-99 -358,0 -81,80 -97,206 -40,305 4,7 13,10 21,5 7,-4 10,-13 6,-21 -50,-87 -36,-197 35,-267 87,-87 227,-87 314,0 86,86 86,227 0,313 -71,72 -182,86 -269,35 -7,-4 -17,-2 -21,6 -4,7 -2,17 6,21 39,23 83,35 127,35 65,0 130,-26 179,-75 99,-98 99,-259 0,-357z"/>
     <path class="fil1" d="M900 3193c0,-8 -6,-14 -13,-16l-58 -9 -31 -73 35 -48c4,-6 4,-15 -2,-20l-97 -97c-5,-5 -14,-6 -20,-1l-47 34 -74 -31 -9 -57c-1,-8 -8,-13 -16,-13 0,0 0,0 0,0l-137 0c-7,0 -14,5 -15,13l-9 57 -74 31 -47 -34c-6,-5 -15,-4 -20,1l-97 97c-6,6 -6,14 -2,20l34 48 -30 74 -58 9c-7,1 -13,7 -13,15l0 137c0,8 6,14 13,16l58 9 31 74 -35 47c-4,6 -4,15 2,20l97 97c5,5 14,6 20,1l47 -34 74 31 9 57c1,8 8,14 16,14 0,0 0,0 0,0l137 -1c7,0 14,-5 15,-13l9 -57 74 -31 47 34c7,5 15,4 21,-1l96 -97c6,-6 6,-14 2,-20l-34 -48 30 -74 58 -9c7,-1 13,-7 13,-15l0 -137zm-84 132c-6,1 -10,4 -12,9l-38 90c-2,5 -1,11 2,16l32 43 -78 78 -44 -31c-4,-4 -10,-4 -15,-2l-90 37c-5,2 -8,7 -9,12l-9 53 -110 0 -8 -53c-1,-5 -5,-10 -10,-12l-90 -37c-2,-1 -4,-1 -6,-1 -3,0 -6,1 -9,3l-44 31 -78 -78 32 -43c3,-5 4,-10 2,-15l-38 -90c-2,-5 -6,-9 -12,-10l-53 -8 0 -111 53 -8c6,-1 10,-4 12,-9l38 -90c2,-5 1,-11 -2,-16l-32 -43 78 -78 44 31c4,4 10,4 15,2l90 -37c5,-2 8,-7 9,-12l9 -53 110 0 8 53c1,5 5,10 10,12l90 37c5,2 11,1 15,-2l44 -31 78 78 -32 43c-3,5 -4,10 -2,15l38 90c2,5 6,9 12,10l53 8 0 111 -53 8z"/>
     <path class="fil1" d="M642 3281c-19,-18 -45,-25 -71,-21l-69 -69c4,-27 -5,-55 -24,-75 -25,-25 -62,-32 -94,-19 -5,2 -9,6 -10,11 -1,5 1,11 4,14l23 23c5,5 5,13 0,18 -5,4 -12,4 -17,0l-23 -23c-4,-4 -9,-6 -14,-4 -5,1 -10,4 -12,9 -13,34 -4,73 23,97 19,18 46,26 71,21l69 69c-4,27 5,55 24,75 17,17 39,25 62,25 11,0 22,-2 33,-6 4,-2 8,-6 9,-11 1,-5 -1,-11 -4,-15l-23 -22c-5,-5 -5,-13 0,-17 5,-5 13,-5 18,0l22 22c4,4 9,5 14,4 5,-1 10,-4 12,-9 13,-34 4,-73 -23,-97zm-3 57c-17,-17 -45,-17 -62,0 -17,17 -17,45 0,62l1 1c-12,-2 -24,-7 -33,-16 -14,-14 -20,-35 -15,-54 2,-5 0,-11 -4,-15l-80 -81c-3,-3 -7,-4 -11,-4 -2,0 -3,0 -4,0 -19,5 -38,1 -52,-12 -11,-9 -17,-22 -18,-35l1 1c17,17 44,17 61,0 17,-17 17,-45 0,-62l0 -1c12,2 23,7 32,16 14,14 20,35 15,54 -2,5 0,11 4,15l80 81c4,4 10,5 16,4 18,-5 37,-1 51,12 11,9 17,22 18,35l0 -1z"/>
     <path class="fil1" d="M643 3150c-26,-33 -63,-56 -103,-65 -8,-2 -17,3 -19,12 -2,8 4,16 12,18 34,8 64,27 85,54 3,4 8,6 12,6 4,0 7,-1 10,-3 7,-5 8,-15 3,-22z"/>
     <path class="fil1" d="M673 3206l-1 0c-2,-9 -11,-13 -19,-11 -9,3 -13,12 -10,20l0 1c2,6 8,11 15,11 1,0 3,-1 4,-1 9,-3 13,-12 11,-20z"/>
    </g>
   </g>
   <g>
    <path class="fil5" d="M1430 3152c-9,0 -16,-7 -16,-15l0 -67c0,-8 6,-14 14,-15 82,-10 168,-47 242,-103 6,-5 14,-5 19,0 75,59 157,94 243,103 8,1 14,8 14,16l0 145c0,85 -27,166 -78,234 -49,67 -113,115 -183,140 -2,1 -3,1 -5,1 -2,0 -4,0 -5,-1 -70,-25 -134,-73 -183,-140 -41,-55 -67,-119 -75,-187 -1,-8 5,-16 14,-17l1 0c-1,-10 -1,-20 -2,-31l0 0c-9,0 -16,-7 -16,-16 0,-9 7,-16 16,-16 0,-10 0,-21 0,-31zm547 -125c-171,-5 -264,-96 -297,-128 -14,13 -40,37 -78,60 -67,43 -141,65 -219,68l0 189c0,92 29,179 84,253 58,79 134,136 213,161 79,-25 155,-82 213,-161 55,-74 84,-161 84,-253l0 -189z"/>
    <g>
     <path class="fil1" d="M1430 3183c-9,0 -16,7 -16,16 0,9 7,16 16,16 9,0 16,-7 16,-16 0,-9 -7,-16 -16,-16z"/>
     <path class="fil1" d="M1992 2996c-170,0 -261,-91 -291,-121 -6,-6 -10,-9 -13,-11 -5,-3 -11,-3 -16,0 -2,1 -4,3 -9,7 -11,11 -37,37 -77,62 -67,42 -141,63 -219,63 -8,0 -15,7 -15,16l0 204c0,99 31,193 90,272 63,85 146,147 233,173 2,0 3,1 5,1 1,0 3,-1 4,-1 88,-26 171,-88 234,-173 59,-79 90,-173 90,-272l0 -204c0,-9 -7,-16 -16,-16zm-15 220c0,92 -29,179 -84,253 -58,79 -134,136 -213,161 -79,-25 -155,-82 -213,-161 -55,-74 -84,-161 -84,-253l0 -189c78,-3 152,-25 219,-68 38,-23 64,-47 78,-60 33,32 126,123 297,128l0 189z"/>
     <path class="fil1" d="M1932 3055c-86,-9 -168,-44 -243,-103 -5,-5 -13,-5 -19,0 -74,56 -160,93 -242,103 -8,1 -14,7 -14,15l0 67c0,8 7,15 16,15 9,0 16,-7 16,-15l0 -53c59,-9 143,-34 233,-100 73,55 152,89 235,100l0 132c0,79 -24,153 -71,216 -45,60 -101,104 -163,127 -62,-23 -118,-67 -163,-127 -38,-51 -62,-110 -69,-172 -1,-9 -9,-15 -17,-14 -9,1 -15,9 -14,17 8,68 34,132 75,187 49,67 113,115 183,140 1,1 3,1 5,1 2,0 3,0 5,-1 70,-25 134,-73 183,-140 51,-68 78,-149 78,-234l0 -145c0,-8 -6,-15 -14,-16z"/>
     <path class="fil1" d="M1835 3204c-2,-6 -7,-10 -13,-11l-89 -13 -40 -80c-2,-6 -8,-9 -14,-9 -6,0 -11,3 -14,9l-40 80 -89 13c-6,1 -11,5 -12,11 -2,6 -1,12 4,16l64 63 -15 89c-1,6 1,12 6,15 3,2 6,3 9,3 3,0 5,-1 8,-2l79 -42 80 42c5,3 12,3 17,-1 4,-3 7,-9 6,-15l-15 -89 64 -63c4,-4 6,-10 4,-16zm-96 62c-4,4 -5,9 -5,14l12 66 -59 -31c-5,-3 -10,-3 -15,0l-59 31 11 -66c1,-5 0,-10 -4,-14l-48 -46 66 -10c5,-1 10,-4 12,-8l29 -60 30 60c2,4 7,7 12,8l66 10 -48 46z"/>
    </g>
   </g>
   <g>
    <rect class="fil5" x="2471" y="3019" width="110" height="320"/>
    <rect class="fil5" x="3151" y="3019" width="99.9922" height="319.996"/>
    <g>
     <path class="fil1" d="M3244 3137c9,0 16,-7 16,-16l0 -102c0,-9 -7,-16 -16,-16l-84 0c-14,0 -26,9 -30,22l-220 0c0,0 0,-1 0,-1 -43,-19 -89,-24 -135,-15l-126 24 -58 0c0,-17 -14,-30 -31,-30l-84 0c-9,0 -16,7 -16,16l0 100c0,9 7,16 16,16 8,0 15,-7 15,-16l0 -85 69 0 0 296 -69 0 0 -83c0,-8 -7,-15 -15,-15 -9,0 -16,7 -16,15l0 99c0,9 7,16 16,16l84 0c17,0 31,-14 31,-32l0 0c7,2 14,6 20,10l7 6c2,12 8,24 18,33 9,7 21,11 32,11 1,0 2,0 3,0 2,13 8,24 18,32 9,8 20,11 31,11 1,0 3,0 4,0 1,13 7,24 17,32 9,8 20,12 32,12 1,0 2,0 3,0 2,12 8,23 18,32 9,7 20,11 31,11 2,0 4,0 5,0 14,-1 25,-8 34,-18l13 -15c3,-5 6,-10 8,-15 7,4 16,6 24,6 1,0 1,0 1,0 14,0 27,-6 36,-16 5,-5 9,-11 12,-18l5 6c10,9 23,14 36,14 14,0 27,-5 37,-15 6,-6 10,-13 12,-21 8,4 15,6 23,6 14,0 27,-5 37,-16 10,-10 15,-23 15,-37 0,-14 -6,-26 -16,-36l-10 -11 32 -17 0 13c0,18 14,32 31,32l84 0c9,0 16,-7 16,-16l0 -104c0,-8 -7,-15 -16,-15 -8,0 -15,7 -15,15l0 88 -69 0 0 -39c0,0 0,0 0,0l0 -257 69 0 0 87c0,9 7,16 15,16zm-549 200l-13 15c-7,8 -18,9 -26,3 -8,-7 -9,-19 -3,-26l13 -16c3,-4 8,-6 13,-6 0,0 1,-1 1,-1 5,0 9,2 12,5 8,6 9,18 3,26zm52 43l-12 15c-7,8 -19,9 -26,3 -4,-3 -7,-8 -7,-13 -1,-4 1,-9 4,-13l13 -15c3,-4 7,-7 12,-7 1,0 1,0 2,0 4,0 8,1 12,4 4,3 6,8 6,12 1,5 -1,10 -4,14zm53 43l-13 16c-3,4 -7,6 -12,6 -5,1 -10,-1 -14,-4 -4,-3 -6,-7 -6,-12 -1,-5 1,-10 4,-14l12 -15c4,-5 9,-7 15,-7 4,0 8,2 11,4 8,7 9,18 3,26zm52 44l-12 15c-3,4 -8,6 -13,7 -5,0 -9,-1 -13,-4 -8,-7 -9,-19 -3,-26l13 -16c3,-4 8,-6 12,-6 1,0 2,-1 2,-1 5,0 9,2 12,5 4,3 6,7 7,12 0,5 -1,10 -5,14zm234 -71c-8,8 -21,9 -29,1l-52 -51c0,0 0,0 0,0l-51 -49c-6,-6 -16,-6 -22,0 -6,6 -6,16 0,22l81 79c9,8 9,21 1,29 -8,8 -21,8 -29,0l-81 -79c0,0 -1,0 -1,0l-39 -38c-6,-6 -16,-6 -22,0 -6,7 -6,17 0,23l82 78c8,8 8,21 0,29 -4,4 -9,6 -14,7 -6,0 -11,-2 -15,-6l-23 -22c0,-1 -1,-1 -1,-2 -1,0 -1,0 -1,0 -10,-9 -23,-12 -35,-12 -2,-12 -8,-23 -18,-32 -10,-8 -22,-12 -35,-11 -1,-13 -8,-24 -17,-32 -10,-8 -23,-12 -35,-11 -2,-12 -8,-24 -18,-32 -10,-9 -23,-13 -36,-12 -14,2 -25,8 -34,18l-13 16c-1,1 -2,2 -3,4 -10,-8 -22,-12 -35,-15l0 -234 59 0c1,0 2,0 3,0l128 -25c22,-4 44,-4 65,-1 -16,7 -31,17 -44,30l-118 117c-22,21 -22,56 -1,78 11,11 25,17 40,17 9,0 18,-3 27,-7l124 -70 43 0 169 164c4,4 6,9 6,15 0,5 -2,10 -6,14zm43 -114l-56 30 -112 -109 11 0c9,0 16,-7 16,-16 0,-9 -7,-16 -16,-16l-102 0c-3,0 -6,1 -8,2l-128 72c-9,6 -21,4 -29,-4 -9,-9 -9,-24 1,-34l118 -117c22,-22 52,-34 84,-34l221 0 0 226z"/>
     <path class="fil1" d="M3255 3171c-3,-3 -7,-4 -11,-4 -4,0 -8,1 -11,4 -3,3 -4,7 -4,11 0,4 1,8 4,11 3,3 7,5 11,5 4,0 8,-2 11,-5 3,-3 5,-7 5,-11 0,-4 -2,-8 -5,-11z"/>
     <path class="fil1" d="M2487 3171c-3,-3 -7,-4 -11,-4 -5,0 -9,1 -11,4 -3,3 -5,7 -5,11 0,4 2,8 5,11 2,3 6,5 11,5 4,0 8,-2 11,-5 3,-3 4,-7 4,-11 0,-4 -1,-8 -4,-11z"/>
    </g>
   </g>
   <g>
    <path class="fil5" d="M4480 3236c1,-4 0,-8 -2,-11 -9,-15 -9,-34 0,-49 2,-3 3,-7 2,-11 -1,-4 -4,-7 -7,-9 -16,-8 -26,-25 -25,-43 0,-4 -1,-8 -4,-11 -3,-2 -7,-4 -11,-4 -17,1 -34,-8 -42,-24 -2,-4 -5,-6 -9,-7 -4,-1 -8,-1 -11,1 -15,10 -34,10 -49,0 -4,-2 -8,-2 -12,-1 -4,1 -7,3 -9,7 -8,16 -24,25 -42,24 -4,0 -8,2 -11,4 -3,3 -4,7 -4,11 1,18 -9,35 -25,43 -3,2 -6,5 -7,9 -1,4 0,8 2,11 10,15 10,34 0,49 -2,3 -3,7 -2,11 1,4 4,7 7,9 5,3 9,5 12,9l1 1c8,8 13,20 12,33 0,4 1,8 4,11 3,2 7,4 11,4 18,-1 34,8 42,24 2,4 5,6 9,7 4,1 8,1 12,-1 7,-5 16,-8 24,-8 9,0 17,3 25,8 3,2 7,2 11,1 4,-1 7,-3 9,-7 8,-16 25,-25 42,-24 4,0 8,-2 11,-4 3,-3 4,-7 4,-11 -1,-18 9,-35 25,-43 3,-2 6,-5 7,-9zm-60 -56l-62 63c-4,3 -8,5 -12,5 -4,0 -8,-2 -11,-5l-31 -32c-6,-6 -6,-16 0,-22 6,-6 16,-6 22,0l20 21 52 -52c6,-6 16,-6 22,0 7,6 7,16 0,22z"/>
    <g>
     <path class="fil1" d="M4412 3007c8,0 15,-7 15,-16l0 -83c0,-25 -21,-46 -46,-46l-622 0c-26,0 -47,21 -47,46l0 707c0,25 21,47 47,47l622 0c25,0 46,-22 46,-47l0 -44c0,-9 -7,-16 -15,-16 -9,0 -16,7 -16,16l0 44c0,8 -7,15 -15,15l-622 0c-9,0 -16,-7 -16,-15l0 -707c0,-8 7,-15 16,-15l622 0c8,0 15,7 15,15l0 83c0,9 7,16 16,16z"/>
     <path class="fil1" d="M4337 2937l-535 0c-8,0 -15,7 -15,15l0 327c0,8 7,15 15,15 9,0 16,-7 16,-15l0 -311 503 0 0 25c0,8 7,15 16,15 8,0 15,-7 15,-15l0 -41c0,-8 -7,-15 -15,-15z"/>
     <path class="fil1" d="M3813 3325c-2,-2 -6,-4 -11,-4 -4,0 -8,2 -11,4 -3,3 -4,7 -4,12 0,4 1,8 4,11 3,2 7,4 11,4 5,0 9,-2 11,-4 3,-3 5,-7 5,-11 0,-5 -2,-9 -5,-12z"/>
     <path class="fil1" d="M4337 3521c-9,0 -16,7 -16,16l0 18 -503 0 0 -158c0,-9 -7,-16 -16,-16 -8,0 -15,7 -15,16l0 174c0,9 7,16 15,16l535 0c8,0 15,-7 15,-16l0 -34c0,-9 -7,-16 -15,-16z"/>
     <path class="fil1" d="M4196 3414c-6,-7 -16,-7 -22,0l-31 30 -19 -19c-12,-12 -32,-12 -44,0l-13 13c-6,6 -6,16 0,22 6,6 16,6 22,0l13 -13 19 20c6,6 14,9 22,9 8,0 16,-3 22,-9l31 -31c6,-6 6,-16 0,-22z"/>
     <path class="fil1" d="M4505 3189c6,-10 9,-24 5,-36 -3,-12 -11,-23 -23,-29 -5,-2 -8,-7 -7,-13 0,-13 -5,-25 -14,-34 -9,-9 -21,-14 -34,-13 -6,0 -11,-3 -13,-8 -6,-11 -17,-20 -29,-23 -12,-3 -25,-1 -36,6 -5,3 -11,3 -16,0 -10,-7 -24,-9 -36,-6 -12,3 -23,12 -28,23 -3,5 -8,8 -14,8 -12,-1 -25,4 -34,13 -9,9 -14,21 -13,34 0,6 -3,11 -8,13 -11,6 -20,17 -23,29 -2,6 -2,12 -1,18l-273 0c-8,0 -15,7 -15,16 0,8 7,15 15,15l281 0c0,1 -1,2 -1,3 -7,10 -9,24 -6,36 1,2 1,3 2,5l-276 0c-8,0 -15,7 -15,16 0,8 7,15 15,15l304 0c1,2 1,4 1,6 -1,13 4,25 13,34 9,9 22,14 34,13 6,0 11,3 14,8 1,4 4,7 7,10l0 146c0,6 3,12 9,14 6,3 13,1 17,-3l39 -39 39 39c3,3 7,4 11,4 2,0 4,0 6,-1 6,-2 10,-8 10,-14l0 -146c2,-3 5,-6 7,-10 2,-5 7,-8 13,-8 13,1 25,-4 34,-13 9,-9 14,-21 14,-34 -1,-6 2,-11 7,-13 12,-6 20,-17 23,-29 4,-12 1,-26 -5,-36 -3,-5 -3,-11 0,-16zm-124 267l-24 -23c-6,-6 -16,-6 -22,0l-23 23 0 -93c9,0 18,-2 26,-8 5,-3 11,-3 16,0 7,5 16,8 24,8 1,0 2,0 3,0l0 93zm99 -223c-1,4 -4,7 -7,9 -16,8 -26,25 -25,42 0,4 -1,8 -4,11 -3,3 -7,4 -11,4 -17,-1 -34,9 -42,25 -2,3 -5,6 -9,7 -4,1 -8,0 -11,-2 -8,-5 -16,-7 -25,-7 -8,0 -17,2 -24,7 -4,2 -8,3 -12,2 -4,-1 -7,-4 -9,-7 -8,-16 -24,-26 -42,-25 -4,0 -8,-1 -11,-4 -3,-3 -4,-7 -4,-11 1,-12 -4,-24 -12,-33 -1,0 -1,-1 -1,-1 -3,-3 -7,-6 -12,-8 -3,-2 -6,-5 -7,-9 -1,-4 0,-8 2,-12 10,-14 10,-34 0,-49 -2,-3 -3,-7 -2,-11 1,-4 4,-7 7,-9 16,-8 26,-25 25,-42 0,-4 1,-8 4,-11 3,-3 7,-4 11,-4 18,1 34,-9 42,-25 2,-3 5,-6 9,-7 4,-1 8,0 12,2 15,9 34,9 49,0 3,-2 7,-3 11,-2 4,1 7,4 9,7 8,16 25,26 42,25 4,0 8,1 11,4 3,3 4,7 4,11 -1,17 9,34 25,42 3,2 6,5 7,9 1,4 0,8 -2,11 -9,15 -9,35 0,49 2,4 3,8 2,12z"/>
     <path class="fil1" d="M4420 3154c-6,-6 -16,-6 -22,0l-52 52 -20 -20c-6,-6 -16,-6 -22,0 -6,6 -6,16 0,22l31 31c3,4 7,5 11,5 4,0 8,-1 12,-5l62 -62c7,-7 7,-16 0,-23z"/>
     <path class="fil1" d="M3903 3050c-3,-2 -7,-4 -12,-4 -4,0 -8,2 -11,4 -2,3 -4,7 -4,12 0,4 2,8 4,11 3,2 7,4 11,4 5,0 9,-2 12,-4 2,-3 4,-7 4,-11 0,-5 -2,-9 -4,-12z"/>
     <path class="fil1" d="M4026 3046l-76 0c-9,0 -16,7 -16,16 0,8 7,15 16,15l76 0c8,0 15,-7 15,-15 0,-9 -7,-16 -15,-16z"/>
     <path class="fil1" d="M4185 3321l-179 0c-8,0 -15,7 -15,16 0,8 7,15 15,15l179 0c9,0 16,-7 16,-15 0,-9 -7,-16 -16,-16z"/>
    </g>
   </g>
   <g>
    <path class="fil5" d="M4998 3279l0 243c0,11 9,20 20,20l691 0c11,0 20,-9 20,-20l0 -243c0,-11 -9,-20 -20,-20l-182 0 -2 1 -22 49c-6,13 -18,22 -32,22l-214 0c-14,0 -27,-9 -33,-22l-22 -49 -1 -1 -183 0c-11,0 -20,9 -20,20zm253 130c0,-13 11,-24 24,-24l177 0c13,0 24,11 24,24l0 54c0,13 -11,24 -24,24l-177 0c-13,0 -24,-11 -24,-24l0 -54z"/>
    <g>
     <path class="fil1" d="M5452 3381l-177 0c-13,0 -24,11 -24,25l0 54c0,13 11,24 24,24l177 0c13,0 24,-11 24,-24l0 -54c0,-14 -11,-25 -24,-25zm-7 72l-163 0 0 -41 163 0 0 41z"/>
     <path class="fil1" d="M5756 3247l0 0 -116 -230c-10,-18 -28,-30 -49,-30l-22 0 0 -21c0,-9 -7,-16 -16,-16l-379 0c-9,0 -15,7 -15,16l0 21 -23 0c-20,0 -39,12 -49,30l-116 230 0 0c-5,9 -7,18 -7,28l0 243c0,30 24,55 54,55l691 0c30,0 55,-25 55,-55l0 -243c0,-10 -3,-19 -8,-28zm-187 -225l22 0c8,0 15,4 18,11l95 188 -65 0 0 -58c0,-8 -6,-15 -15,-15l-19 0 0 -83c0,-9 -7,-16 -16,-16l-20 0 0 -27zm39 157l0 42 -81 0c-14,0 -27,8 -33,21l-22 50c0,0 -1,1 -1,1l-214 0c-1,0 -1,-1 -1,-1l-23 -50c-6,-13 -18,-21 -32,-21l-82 0 0 -42 489 0zm-418 -198l348 0 0 68 -348 0 0 -68zm384 99l0 68 -421 0 0 -68 421 0zm-456 -47c4,-7 11,-11 18,-11l23 0 0 27 -21 0c-9,0 -16,7 -16,16l0 83 -19 0c-8,0 -15,7 -15,15l0 58 -65 0 95 -188zm591 505l-691 0c-11,0 -20,-9 -20,-20l0 -243c0,-10 9,-19 20,-19l183 0c0,0 1,0 1,0l22 50c6,13 19,21 33,21l214 0c14,0 26,-8 32,-21l22 -50 0 0c1,0 1,0 2,0l182 0c11,0 20,9 20,19l0 243 0 0c0,11 -9,20 -20,20z"/>
    </g>
   </g>
   <g>
    <path class="fil5" d="M6567 3509l-266 0c-6,0 -12,2 -16,7 -5,4 -7,10 -7,16 0,13 10,24 23,24l266 0c6,0 12,-3 17,-7 4,-5 6,-11 6,-17 0,-13 -10,-23 -23,-23z"/>
    <path class="fil5" d="M6567 3587l-266 0 -7 0c-26,0 -47,21 -47,47l375 0c0,-26 -21,-47 -47,-47l-8 0z"/>
    <g>
     <path class="fil1" d="M6399 3134c-6,-6 -16,-6 -22,0 -6,6 -6,16 0,22 6,6 16,6 22,0 7,-6 7,-16 0,-22z"/>
     <path class="fil1" d="M6611 3561c7,-9 11,-21 11,-32 0,-30 -25,-55 -55,-55l-266 0c-14,0 -28,6 -38,16 -11,10 -16,24 -16,39 0,12 4,23 10,32 -25,13 -42,39 -42,69l0 16c0,8 7,15 16,15l406 0c9,0 16,-7 16,-15l0 -16c0,-30 -17,-56 -42,-69zm-326 -49c4,-4 10,-7 16,-7l266 0c13,0 23,11 23,24 0,6 -2,12 -6,16 -5,5 -11,7 -17,7l-266 0c-13,0 -23,-10 -23,-23 0,-7 2,-12 7,-17zm-38 118c0,-26 21,-47 47,-47l7 0 266 0 8 0c26,0 47,21 47,47l-375 0z"/>
     <path class="fil1" d="M7001 3518c-5,-8 -12,-16 -19,-22l-73 -63c0,-1 -1,-2 -2,-3 -1,-1 -3,-2 -4,-3l-44 -38 -205 -179c9,-8 13,-20 13,-32 0,-12 -5,-24 -13,-33 -4,-4 -9,-7 -13,-9l19 -19c5,1 10,2 16,2 16,0 32,-6 44,-18 12,-12 18,-28 18,-44 0,-17 -6,-33 -18,-45l-133 -132c-12,-12 -27,-18 -44,-18 -17,0 -32,6 -44,18 -16,16 -22,39 -16,60l-189 189c-5,-2 -11,-2 -16,-2 -17,0 -32,6 -44,18 -25,24 -25,64 0,88l132 133c13,12 29,18 45,18 16,0 32,-6 44,-18 16,-16 21,-40 16,-60l19 -19c2,4 5,9 9,13 9,9 21,13 33,13 12,0 24,-4 32,-13l218 251c1,0 1,1 2,2 0,0 1,1 1,1l65 74c2,2 3,4 5,6 18,18 41,28 66,28 4,0 9,-1 13,-1 30,-4 55,-22 70,-49 16,-29 15,-66 -3,-94zm-480 -616c6,-6 14,-9 22,-9 8,0 16,3 22,9l133 133c6,5 9,13 9,22 0,8 -3,16 -9,22 -12,12 -32,12 -44,0l-133 -133c0,0 0,0 0,0 -12,-12 -12,-32 0,-44zm-88 442c-13,12 -32,12 -45,0l-132 -133c-12,-12 -12,-32 0,-44 6,-6 14,-9 22,-9 8,0 16,3 22,9l133 133c12,12 12,32 0,44zm65 -110l-43 44 -133 -133 177 -177 132 133 -43 44c0,0 -1,0 -1,0l-88 88c0,0 0,1 -1,1zm56 32c0,0 0,1 0,1l-11 11c-3,3 -7,4 -11,4 -4,0 -8,-1 -11,-4 -3,-3 -5,-7 -5,-11 0,-5 2,-8 5,-11l89 -89c6,-6 15,-6 21,0 3,3 5,7 5,11 0,4 -2,8 -5,11l-10 11c-1,0 -1,0 -1,0l-66 66zm33 12l45 -45 194 168 -71 71 -168 -194zm189 217l73 -73 24 20 -77 77 -20 -24zm201 102c-10,18 -27,30 -47,33 -20,2 -39,-4 -53,-18 -1,-1 -2,-3 -3,-4 0,0 0,0 0,0l-57 -65 79 -80 66 57c0,0 0,0 0,0 5,4 9,9 13,15 11,18 12,43 2,62z"/>
     <path class="fil1" d="M6510 3023c-6,-6 -16,-6 -22,0l-66 67c-7,6 -7,16 0,22 3,3 7,4 11,4 4,0 8,-1 11,-4l66 -66c6,-7 6,-16 0,-23z"/>
    </g>
   </g>
  </g>
 </g>
</svg>
