<?xml version="1.0" encoding="UTF-8"?>
<!DOCTYPE svg PUBLIC "-//W3C//DTD SVG 1.1//EN" "http://www.w3.org/Graphics/SVG/1.1/DTD/svg11.dtd">
<!-- Creator: CorelDRAW X8 -->
<svg xmlns="http://www.w3.org/2000/svg" xml:space="preserve" width="1000px" height="1000px" version="1.1" style="shape-rendering:geometricPrecision; text-rendering:geometricPrecision; image-rendering:optimizeQuality; fill-rule:evenodd; clip-rule:evenodd"
viewBox="0 0 10000 10000"
 xmlns:xlink="http://www.w3.org/1999/xlink">
 <defs>
  <style type="text/css">
   <![CDATA[
    .str0 {stroke:silver;stroke-width:20.8347;stroke-linecap:round}
    .fil3 {fill:none}
    .fil1 {fill:black}
    .fil4 {fill:black}
    .fil2 {fill:silver}
    .fil0 {fill:#FFDE00}
   ]]>
  </style>
 </defs>
 <g id="Слой_x0020_1">
  <metadata id="CorelCorpID_0Corel-Layer"/>
  <g id="_2437470834528">
   <path class="fil0" d="M239 142c-77,0 -139,62 -139,139l0 44c0,4 3,8 7,8l15 0 0 183c0,4 3,7 7,7l220 0c4,0 8,-3 8,-7l0 -183 14 0c4,0 8,-4 8,-8l0 -44c0,-77 -63,-139 -140,-139zm103 367l-205 0 0 -176 205 0 0 176zm0 -191l-205 0 0 -15 205 0 0 15zm0 -29l-205 0 0 -15 205 0 0 15zm22 29l-7 0 0 -51c0,-5 -4,-8 -8,-8l-220 0c-4,0 -7,3 -7,8l0 51 -7 0 0 -37c0,-69 55,-124 124,-124 69,0 125,55 125,124l0 37z"/>
   <path class="fil0" d="M159 487l161 0c4,0 7,-4 7,-8l0 -117c0,-4 -3,-7 -7,-7l-161 0c-4,0 -8,3 -8,7l0 117c0,4 4,8 8,8zm7 -118l147 0 0 103 -147 0 0 -103z"/>
   <path class="fil0" d="M503 378c-4,0 -6,-4 -6,-7l11 -131c2,-20 -13,-38 -33,-39 -2,0 -3,0 -4,0l-9 0c-20,0 -37,16 -37,36 0,1 0,2 0,3l11 131c0,3 -2,7 -5,7 -22,7 -38,27 -38,50l0 88c0,4 4,7 8,7l132 0c4,0 7,-3 7,-7l0 -88c0,-23 -15,-43 -37,-50zm-84 24l0 0c4,-4 10,-8 16,-9 10,-3 17,-13 16,-23l-11 -131c-1,-12 8,-23 20,-24 1,0 1,0 2,0l9 0c13,0 22,10 22,22 0,1 0,1 0,2l-10 131c-1,10 6,20 16,23 13,3 23,14 26,28l-116 0c1,-8 5,-14 10,-19zm106 107l-14 0 0 -30c0,-4 -4,-7 -8,-7 -4,0 -7,3 -7,7l0 30 -29 0 0 -52c0,-4 -4,-7 -8,-7 -4,0 -7,3 -7,7l0 52 -15 0 0 -30c0,-4 -3,-7 -7,-7 -4,0 -7,3 -7,7l0 30 -15 0 0 -74 117 0 0 74z"/>
   <circle class="fil0" cx="467" cy="237" r="15"/>
   <path class="fil0" d="M234 386c0,0 0,0 0,0l0 0c-4,5 -24,28 -24,42 0,16 13,29 29,29 17,0 30,-13 30,-29 0,-14 -20,-37 -24,-42 -3,-3 -8,-3 -11,0zm5 57c-8,0 -14,-7 -14,-15 0,-5 7,-16 14,-25 8,9 15,20 15,25 0,8 -7,15 -15,15z"/>
   <path class="fil0" d="M1059 396c4,0 7,-4 7,-7l0 -98 21 0c19,0 35,-16 35,-35 0,-20 -16,-35 -35,-35 -19,0 -35,15 -35,35l0 21 -28 0 0 -21c0,-20 -16,-35 -35,-35 -19,0 -35,15 -35,35 0,19 16,35 35,35l21 0 0 98c0,3 3,7 7,7 4,0 7,-4 7,-7l0 -98 28 0 0 98c0,3 3,7 7,7zm7 -140c0,-12 9,-21 21,-21 12,0 21,9 21,21 0,11 -9,21 -21,21l-21 0 0 -21zm-56 21l-21 0c-12,0 -21,-10 -21,-21 0,-12 9,-21 21,-21 12,0 21,9 21,21l0 21z"/>
   <path class="fil0" d="M878 137l27 23c1,1 3,2 4,2 2,0 4,-1 6,-3 2,-3 2,-7 -1,-10l-27 -22c-3,-3 -7,-2 -10,1 -2,3 -2,7 1,9z"/>
   <path class="fil0" d="M883 198l-33 -11c-4,-2 -8,0 -9,4 -2,3 0,7 4,9l33 12c1,0 1,0 2,0 3,0 6,-2 7,-5 1,-3 -1,-7 -4,-9z"/>
   <path class="fil0" d="M1167 162c1,0 3,-1 4,-2l27 -23c3,-2 3,-7 1,-9 -3,-3 -7,-4 -10,-1l-27 22c-3,3 -3,7 -1,10 2,2 4,3 6,3z"/>
   <path class="fil0" d="M870 256l-35 0c-4,0 -7,3 -7,7 0,3 3,7 7,7l35 0c4,0 7,-4 7,-7 0,-4 -3,-7 -7,-7z"/>
   <path class="fil0" d="M1235 191c-1,-4 -5,-6 -9,-4l-33 11c-3,2 -5,6 -4,9 1,3 4,5 7,5 1,0 1,0 2,0l33 -12c4,-2 6,-6 4,-9z"/>
   <path class="fil0" d="M1038 123c-77,0 -140,62 -140,140 0,59 23,103 73,138 0,0 1,1 1,1 0,0 8,4 10,16 -8,3 -14,11 -14,20 0,5 2,10 5,14 -3,3 -5,8 -5,14 0,5 2,10 5,14 -3,3 -5,8 -5,14 0,11 9,21 21,21 4,0 7,-4 7,-7 0,-4 -3,-7 -7,-7 -4,0 -7,-4 -7,-7 0,-4 3,-7 7,-7l70 0c4,0 7,-4 7,-7 0,-4 -3,-7 -7,-7l-70 0c-4,0 -7,-4 -7,-7 0,-4 3,-7 7,-7l70 0c4,0 7,-4 7,-7 0,-4 -3,-7 -7,-7l-70 0c-4,0 -7,-4 -7,-7 0,-4 3,-7 7,-7l70 0c4,0 7,-4 7,-7 0,-4 -3,-7 -7,-7l-63 0c-3,-18 -14,-26 -17,-27 -46,-33 -67,-73 -67,-127 0,-70 57,-126 126,-126 69,0 126,56 126,126 0,54 -21,94 -67,127 -3,1 -17,11 -17,34 0,3 3,7 7,7 4,0 7,3 7,7 0,3 -3,7 -7,7 -4,0 -7,3 -7,7 0,3 3,7 7,7 4,0 7,3 7,7 0,3 -3,7 -7,7 -4,0 -7,3 -7,7 0,3 3,7 7,7 4,0 7,3 7,7 0,4 -3,7 -7,7l-70 0c-4,0 -7,3 -7,7l0 14c0,11 9,21 21,21l14 0c12,0 21,-10 21,-21l0 -7 21 0c12,0 21,-10 21,-21 0,-6 -2,-11 -5,-14 3,-4 5,-9 5,-14 0,-6 -2,-11 -5,-14 3,-4 5,-9 5,-14 0,-9 -6,-17 -14,-20 2,-12 10,-16 10,-16 0,0 1,-1 1,-1 50,-35 73,-79 73,-138 0,-78 -63,-140 -140,-140zm14 399c0,3 -3,7 -7,7l-14 0c-4,0 -7,-4 -7,-7l0 -7 28 0 0 7z"/>
   <path class="fil0" d="M1241 256l-35 0c-4,0 -7,3 -7,7 0,3 3,7 7,7l35 0c4,0 7,-4 7,-7 0,-4 -3,-7 -7,-7z"/>
   <path class="fil0" d="M1916 222l0 -84c0,-4 -3,-7 -7,-7 -4,0 -7,3 -7,7l0 77 -49 0 0 -14c0,-4 -3,-7 -7,-7l-35 0 0 -24c0,-4 -3,-7 -6,-7l-15 0 0 -18 77 0c4,0 7,-3 7,-7l0 -31c0,-4 -3,-7 -7,-7l-188 0c-4,0 -7,3 -7,7l0 31c0,4 3,7 7,7l77 0 0 18 -14 0c-4,0 -7,3 -7,7l0 24 -35 0c-4,0 -7,3 -7,7l0 14c-73,4 -132,63 -136,136l-14 0c-4,0 -7,3 -7,7l0 42c0,4 3,7 7,7l125 0c4,0 7,-3 7,-7l0 -42c0,-4 -3,-7 -7,-7l-13 0c3,-19 18,-35 38,-38l0 14c0,3 3,6 7,6l146 0c4,0 7,-3 7,-6l0 -14 49 0 0 45c0,4 3,7 7,7 4,0 7,-3 7,-7l0 -52c0,0 0,0 0,0l0 -84c0,0 0,0 0,0zm-223 77c-27,3 -49,25 -52,52l-27 0c-4,0 -7,3 -7,6 0,0 0,1 0,1 0,0 0,0 0,0 0,4 3,7 7,7l48 0 0 28 -112 0 0 -28 30 0c4,0 7,-3 7,-7l0 0c0,0 0,0 0,0 0,-4 -3,-7 -7,-7l-9 0c3,-66 56,-119 122,-122l0 70zm-7 -168l0 -17 174 0 0 17 -76 0c0,0 0,0 0,0l-21 0c0,0 0,0 0,0l-77 0zm91 14l0 18 -8 0 0 -18 8 0zm-29 31l1 0 14 0c0,0 0,0 0,0l21 0c0,0 0,0 0,0l14 0 0 18 -50 0 0 -18zm-41 144l0 -14c0,0 0,0 0,0l0 -84c0,0 0,0 0,0l0 -14 35 0c0,0 0,0 0,0l63 0c0,0 0,0 0,0l35 0 0 112 -133 0zm195 -21l-49 0 0 -70 49 0 0 70z"/>
   <path class="fil0" d="M1805 226l-63 0c-4,0 -7,3 -7,6 0,4 3,7 7,7l63 0c3,0 6,-3 6,-7 0,-3 -3,-6 -6,-6z"/>
   <path class="fil0" d="M1805 288l-63 0c-4,0 -7,3 -7,7 0,4 3,7 7,7l63 0c3,0 6,-3 6,-7 0,-4 -3,-7 -6,-7z"/>
   <path class="fil0" d="M1819 257l-92 0c-3,0 -7,3 -7,7 0,4 4,7 7,7l92 0c4,0 7,-3 7,-7 0,-4 -3,-7 -7,-7z"/>
   <path class="fil0" d="M1644 501l-32 -61c-2,-2 -4,-4 -6,-4 -3,0 -5,2 -6,4l-33 61c-3,6 -5,13 -5,21 0,24 20,43 44,43 24,0 43,-19 43,-43 0,-8 -2,-15 -5,-21zm-38 50c-17,0 -30,-13 -30,-29 0,-5 1,-10 3,-15l27 -49 26 49c0,0 0,0 0,0 2,5 3,10 3,15 0,16 -13,29 -29,29z"/>
   <path class="fil0" d="M2546 454c-12,0 -21,9 -21,21 0,11 9,21 21,21 11,0 20,-10 20,-21 0,-12 -9,-21 -20,-21zm0 29c-5,0 -9,-3 -9,-8 0,-5 4,-9 9,-9 4,0 8,4 8,9 0,5 -4,8 -8,8z"/>
   <path class="fil0" d="M2601 474c0,-15 -6,-29 -18,-39l-123 -112 109 -109c1,0 1,0 2,-1l24 -12c3,-2 5,-5 6,-9 0,-3 -1,-7 -3,-9l-27 -27c-3,-3 -6,-4 -10,-3 -4,0 -7,2 -8,6l-13 23c0,1 0,2 -1,2l-51 52c-3,2 -3,6 0,9 2,2 6,2 8,0l48 -48 12 13 -121 121 -12 -13 53 -53c2,-2 2,-6 0,-8 -3,-3 -7,-3 -9,0l-38 38 -42 -37c12,-34 3,-72 -22,-98 -27,-26 -66,-35 -101,-21 -2,1 -3,2 -3,4 -1,2 0,4 1,6l48 48c2,1 3,3 3,5 0,2 -1,4 -3,6l-31 31c-1,1 -3,2 -5,2 -2,0 -4,-1 -6,-2l-48 -48c-1,-2 -3,-2 -5,-2 -2,0 -4,2 -5,4 -13,35 -5,74 22,100 25,25 62,34 95,23l32 35c-1,3 -3,6 -6,9 -9,9 -23,12 -35,7 -2,-1 -5,0 -7,2l-75 75c-20,20 -20,53 0,73 10,10 23,16 37,16 14,0 27,-6 37,-16l75 -75c2,-2 2,-4 1,-6 -4,-13 -2,-27 8,-36 9,-9 23,-12 35,-7 2,1 5,0 7,-2l14 -14c4,-4 7,-10 7,-16 0,-6 -3,-11 -7,-16l-6 -6 7 -7 124 112c9,8 14,18 14,30 0,12 -4,23 -12,31 -9,8 -20,13 -31,13 -12,-1 -23,-6 -31,-14l-92 -101c-2,-2 -6,-3 -8,0 -3,2 -3,6 -1,8l92 101c10,11 24,18 39,18 1,0 1,0 2,0 14,0 28,-6 38,-16 11,-11 17,-25 16,-40zm-50 -286l12 -23 25 25 -22 12 -15 -14zm-218 117c-1,-2 -4,-3 -6,-2 -30,11 -64,4 -87,-19 -20,-20 -28,-50 -21,-77l41 41c3,3 8,5 14,5 5,0 10,-2 14,-5l31 -32c4,-3 6,-8 6,-14 0,-5 -2,-10 -6,-14l-41 -41c28,-7 57,1 78,22 23,23 30,58 18,88 -1,2 0,5 2,7l44 40 -6 6 -6 -6c-4,-5 -10,-7 -16,-7 -6,0 -11,2 -16,7l-14 14c-2,1 -2,4 -1,6 1,4 2,9 2,13l-30 -32zm108 64l-11 11c-16,-5 -33,0 -45,12l0 0c-12,11 -16,28 -11,44l-73 73c-7,7 -17,11 -28,11 -11,0 -21,-4 -28,-11 -16,-16 -16,-41 0,-57l72 -72c16,4 33,0 45,-12 12,-11 16,-29 11,-44l12 -12c4,-4 10,-4 14,0l11 11 21 21 10 10c4,4 4,11 0,15z"/>
   <path class="fil0" d="M2330 403c-3,-2 -7,-2 -9,0l-58 58c-3,2 -3,6 0,9 1,1 3,2 4,2 2,0 3,-1 4,-2l59 -58c2,-3 2,-7 0,-9z"/>
   <path class="fil0" d="M2351 424c-2,-2 -6,-2 -9,0l-58 59c-2,2 -2,6 0,8 1,1 3,2 5,2 1,0 3,-1 4,-2l58 -58c2,-2 2,-6 0,-9z"/>
   <path class="fil1" d="M1947 1424l-79 0c-4,-16 -16,-28 -31,-32l0 -111c0,-6 -5,-11 -11,-11 -6,0 -11,5 -11,11l0 111c-19,5 -33,22 -33,43 0,24 20,44 44,44 20,0 38,-14 42,-33l79 0c6,0 11,-5 11,-11 0,-6 -5,-11 -11,-11zm-121 33c-12,0 -22,-10 -22,-22 0,-12 10,-22 22,-22 12,0 22,10 22,22 0,12 -10,22 -22,22z"/>
   <path class="fil1" d="M2058 1210l45 46c3,2 5,3 8,3 3,0 6,-1 8,-3 35,-35 35,-92 0,-127 -35,-35 -92,-35 -126,0 -2,2 -4,5 -4,8 0,3 2,6 4,8l50 50 -19 19c-52,-48 -122,-76 -198,-76 -76,0 -145,28 -198,76l-19 -19 50 -50c3,-2 4,-5 4,-8 0,-3 -1,-6 -4,-8 -34,-35 -91,-35 -126,0 -35,35 -35,92 0,127 2,2 5,3 8,3 3,0 6,-1 8,-3l45 -46 18 19c-51,53 -83,126 -83,206 0,109 59,204 146,256l-33 33c-4,5 -4,12 0,16 2,2 5,3 8,3 3,0 6,-1 8,-3l38 -38c39,19 83,30 130,30 47,0 91,-11 130,-30l38 38c2,2 5,3 8,3 3,0 6,-1 8,-3 4,-4 4,-11 0,-16l-33 -33c87,-52 146,-147 146,-256 0,-80 -32,-153 -83,-206l18 -19zm45 -65c24,23 26,60 8,87l-94 -94c26,-19 63,-17 86,7zm-562 87c-18,-27 -16,-64 8,-87 23,-24 60,-26 86,-7l-94 94zm285 478c-152,0 -275,-123 -275,-275 0,-152 123,-275 275,-275 152,0 275,123 275,275 0,152 -123,275 -275,275z"/>
   <path class="fil1" d="M2045 1308c-22,-38 -54,-70 -92,-92 0,0 0,0 0,0 -1,0 -1,0 -1,-1 -37,-21 -80,-33 -126,-33 -46,0 -89,12 -126,33 0,1 0,1 -1,1 0,0 0,0 0,0 -38,22 -70,54 -92,92 0,0 0,0 0,0 0,0 0,1 0,1 -22,37 -34,80 -34,126 0,46 12,89 34,126 0,0 0,0 0,0 0,1 0,1 0,1 22,38 54,70 92,92 0,0 0,0 0,0 1,0 1,0 1,0 37,22 80,34 126,34 46,0 89,-12 126,-34 0,0 0,0 1,0 0,0 0,0 0,0 38,-22 70,-54 92,-92 0,0 0,0 0,-1 0,0 0,0 0,0 22,-37 34,-80 34,-126 0,-46 -12,-89 -34,-126 0,0 0,0 0,-1 0,0 0,0 0,0zm-94 321l-5 -9c-3,-5 -10,-7 -15,-4 -6,3 -7,10 -4,15l5 9c-29,15 -61,24 -95,25l0 -10c0,-6 -5,-11 -11,-11 -6,0 -11,5 -11,11l0 10c-34,-1 -66,-10 -95,-25l6 -9c3,-5 1,-12 -5,-15 -5,-3 -12,-1 -15,4l-5 9c-28,-18 -51,-42 -69,-69l9 -6c5,-3 7,-9 4,-15 -3,-5 -10,-7 -15,-4l-9 6c-15,-29 -24,-61 -26,-95l11 0c6,0 11,-5 11,-11 0,-6 -5,-11 -11,-11l-11 0c2,-34 11,-66 26,-95l9 5c2,1 4,2 5,2 4,0 8,-2 10,-6 3,-5 1,-12 -4,-15l-9 -5c18,-28 41,-51 69,-69l5 9c2,3 6,5 10,5 2,0 4,0 5,-1 6,-3 8,-10 4,-15l-5 -9c29,-15 61,-24 95,-26l0 11c0,6 5,11 11,11 6,0 11,-5 11,-11l0 -11c34,2 66,11 95,26l-5 9c-4,5 -2,12 4,15 1,1 3,1 5,1 4,0 8,-2 10,-5l5 -9c28,18 51,41 69,69l-9 5c-5,3 -7,10 -4,15 2,4 6,6 10,6 1,0 3,-1 5,-2l9 -5c15,29 24,61 26,95l-11 0c-6,0 -11,5 -11,11 0,6 5,11 11,11l11 0c-2,34 -11,66 -26,95l-9 -6c-5,-3 -12,-1 -15,4 -3,6 -1,12 4,15l9 6c-18,27 -41,51 -69,69z"/>
   <path class="fil1" d="M677 1723l-68 0 0 -21c0,-47 -13,-84 -38,-108 -32,-32 -71,-32 -73,-32l-51 0 0 -31c0,0 0,-1 0,-1 33,-14 53,-36 66,-55 19,-30 23,-59 23,-61 1,0 1,-1 1,-1l0 -2c7,-2 13,-6 18,-11 14,-16 13,-41 12,-51 -1,-7 -4,-14 -10,-18 -6,-5 -14,-7 -20,-7l0 -19c0,-3 -1,-6 -4,-9l-21 -20 0 -23c0,-3 -1,-6 -3,-8 -3,-2 -29,-21 -115,-21 -87,0 -112,19 -115,21 -2,2 -4,5 -4,8l0 23 -21 20c-1,1 -2,3 -2,4 -1,2 -1,3 -1,4l0 20c-7,0 -15,2 -21,7 -6,4 -9,11 -10,18 -1,10 -2,35 12,51 5,5 12,9 19,11l0 2c0,0 0,1 0,1 0,2 4,31 24,61 12,19 33,41 65,55 0,0 0,1 0,1l0 31 -50 0c-2,0 -42,0 -74,32 -25,24 -37,61 -37,108l0 21 -69 0c-5,0 -10,4 -10,10 0,6 5,10 10,10l567 0c6,0 10,-4 10,-10 0,-6 -4,-10 -10,-10zm-89 -21l0 21 -50 0 0 -129c6,3 13,8 19,14 21,21 31,52 31,94zm-302 21l-16 0 0 -138c7,-2 13,-2 16,-3l0 141zm20 -141l11 0c4,39 37,69 77,69 39,0 72,-30 76,-69l11 0 0 141 -175 0 0 -141zm196 0c3,1 9,1 16,3l0 138 -16 0 0 -141zm43 -235c1,0 2,2 2,4 1,12 0,27 -7,35 -1,2 -2,2 -3,3l0 -45c3,0 6,1 8,3zm-151 -103c35,0 59,4 75,7 -84,17 -133,8 -155,1 16,-4 41,-8 80,-8zm-147 142c-7,-8 -8,-23 -7,-35 0,-2 1,-4 2,-4 2,-2 6,-3 9,-3l0 45c-1,0 -3,-1 -4,-3zm45 78c-16,-24 -20,-48 -21,-52l0 -104 21 -20c2,-2 4,-4 4,-7l0 -14c11,5 38,14 84,14 29,0 66,-3 112,-14l0 14c0,3 1,5 3,7l21 20 0 104c0,4 -5,28 -21,52 -22,35 -56,54 -100,57l-2 0c-44,-3 -78,-22 -101,-57zm58 118c6,0 10,-4 10,-10l0 -36c10,3 20,5 32,5 0,0 0,0 0,0l3 0c0,0 0,0 1,0 11,0 22,-2 31,-5l0 36c0,6 5,10 10,10l13 0c-4,28 -28,49 -56,49 -29,0 -53,-21 -56,-49l12 0zm-151 120c0,-66 27,-95 51,-109l0 130 -51 0 0 -21z"/>
   <circle class="fil1" cx="322" cy="1329" r="12"/>
   <circle class="fil1" cx="465" cy="1329" r="12"/>
   <path class="fil1" d="M391 1400l5 0c14,0 24,-11 24,-24 0,-6 -4,-10 -10,-10 -5,0 -10,4 -10,10 0,2 -2,4 -4,4l-5 0c-2,0 -4,-2 -4,-4 0,-6 -4,-10 -10,-10 -6,0 -10,4 -10,10 0,13 11,24 24,24z"/>
   <path class="fil1" d="M231 1283c6,0 10,-4 10,-10 0,-83 68,-150 150,-150 83,0 150,67 150,150 0,6 4,10 10,10 6,0 10,-4 10,-10 0,-94 -76,-170 -170,-170 -94,0 -170,76 -170,170 0,6 5,10 10,10z"/>
   <path class="fil1" d="M321 1161l0 40c0,6 5,11 11,11 5,0 10,-5 10,-11l0 -40c0,-6 -5,-10 -10,-10 -6,0 -11,4 -11,10z"/>
   <path class="fil1" d="M381 1149l0 47c0,6 5,10 10,10 6,0 10,-4 10,-10l0 -47c0,-6 -4,-11 -10,-11 -5,0 -10,5 -10,11z"/>
   <path class="fil1" d="M441 1161l0 40c0,6 4,11 10,11 5,0 10,-5 10,-11l0 -40c0,-6 -5,-10 -10,-10 -6,0 -10,4 -10,10z"/>
   <path class="fil1" d="M456 1454c4,-5 3,-11 -1,-14 -5,-4 -11,-3 -14,1 -1,0 -13,14 -45,14 -33,0 -49,-14 -50,-15 -4,-4 -11,-3 -14,1 -4,4 -4,10 0,14 1,1 22,20 64,20 42,0 59,-19 60,-21z"/>
   <path class="fil1" d="M3522 1413c-11,0 -21,-10 -21,-21 0,-11 10,-21 21,-21 12,0 21,10 21,21l20 0c0,-19 -13,-35 -31,-40l0 -22 -20 0 0 22c-18,5 -31,21 -31,40 0,23 18,41 41,41 12,0 21,10 21,21 0,11 -9,21 -21,21 -11,0 -21,-10 -21,-21l-20 0c0,19 13,35 31,40l0 22 20 0 0 -22c18,-5 31,-21 31,-40 0,-23 -18,-41 -41,-41z"/>
   <path class="fil1" d="M3474 1103l-365 0 0 227 -93 0c-28,0 -51,23 -51,52 0,28 23,51 51,51l33 0c-1,4 -2,7 -2,11 0,17 14,31 31,31l31 0 0 268 496 0 0 -531 -131 -109zm7 32l85 71 -85 0 0 -71zm-392 216l237 0 0 62 -237 0 0 -62zm-73 62c-17,0 -31,-14 -31,-31 0,-17 14,-31 31,-31l52 0 0 62 -52 0zm568 309l-454 0 0 -247 93 0 0 -21 -145 0c-5,0 -10,-5 -10,-10 0,-6 5,-11 10,-11l302 0 91 -51 -91 -52 -250 0 0 -206 330 0 0 103 124 0 0 495zm-237 -309l0 -62 20 0 0 62 -20 0zm41 -8l0 -47 41 24 -41 23z"/>
   <path class="fil1" d="M3151 1144l0 104 268 0 0 -104 -268 0zm247 83l-227 0 0 -62 227 0 0 62z"/>
   <rect class="fil1" x="3192" y="1186" width="20.6454" height="20.6454"/>
   <rect class="fil1" x="3233" y="1186" width="20.6454" height="20.6454"/>
   <rect class="fil1" x="3274" y="1186" width="20.6454" height="20.6454"/>
   <rect class="fil1" x="3316" y="1186" width="20.6454" height="20.6454"/>
   <rect class="fil1" x="3357" y="1186" width="20.6454" height="20.6454"/>
   <rect class="fil1" x="3151" y="1537" width="412.906" height="20.6454"/>
   <path class="fil1" d="M3357 1578l0 124 206 0 0 -124 -206 0zm186 103l-165 0 0 -82 165 0 0 82z"/>
   <rect class="fil1" x="3151" y="1578" width="185.808" height="20.6454"/>
   <rect class="fil1" x="3151" y="1619" width="185.808" height="20.6454"/>
   <rect class="fil1" x="3151" y="1660" width="185.808" height="20.6454"/>
   <g>
    <path class="fil2" d="M400 2390c0,83 -67,150 -150,150 -83,0 -150,-67 -150,-150 0,-83 67,-150 150,-150 83,0 150,67 150,150zm-59 -91c-23,-24 -55,-38 -91,-38 -36,0 -68,14 -91,38l0 0c-24,23 -38,55 -38,91 0,36 14,68 38,91l0 0c23,24 55,38 91,38 36,0 68,-14 91,-38 24,-23 38,-55 38,-91 0,-36 -14,-68 -38,-91l0 0z"/>
   </g>
   <polyline class="fil3 str0" points="275,2315 200,2390 275,2465 "/>
   <g>
    <path class="fil2" d="M880 2261c-36,0 -68,14 -91,38l0 0c-24,23 -38,55 -38,91 0,36 14,68 38,91l0 0c23,24 55,38 91,38 36,0 68,-14 91,-38 24,-23 38,-55 38,-91 0,-36 -14,-68 -38,-91l0 0c-23,-24 -55,-38 -91,-38zm-150 129c0,83 67,150 150,150 83,0 150,-67 150,-150 0,-83 -67,-150 -150,-150 -83,0 -150,67 -150,150z"/>
   </g>
   <polyline class="fil3 str0" points="855,2315 930,2390 855,2465 "/>
   <rect class="fil4" x="1423" y="2310" width="34.2874" height="160.004"/>
   <rect class="fil4" transform="matrix(3.02695E-14 -1.14291 1.14292 3.02696E-14 1359.98 2407.14)" width="30" height="139.996"/>
   <g>
    <path class="fil1" d="M1970 2270c66,0 120,54 120,120 0,66 -54,120 -120,120 -66,0 -120,-54 -120,-120 0,-66 54,-120 120,-120zm70 50c-18,-18 -43,-29 -70,-29 -27,0 -52,11 -70,29l0 0c-18,18 -29,43 -29,70 0,27 11,52 29,70l0 0c18,18 43,29 70,29 27,0 52,-11 70,-29 18,-18 29,-43 29,-70 0,-27 -11,-52 -29,-70l0 0z"/>
   </g>
   <rect class="fil4" x="1960" y="2335" width="19.9961" height="99.9922"/>
   <rect class="fil4" transform="matrix(2.64845E-14 -1 1 2.64845E-14 1919.99 2395.01)" width="19.9961" height="99.9922"/>
   <g>
    <path class="fil1" d="M2402 2270c66,0 120,54 120,120 0,66 -54,120 -120,120 -67,0 -120,-54 -120,-120 0,-66 53,-120 120,-120zm70 50c-18,-18 -43,-29 -70,-29 -28,0 -53,11 -71,29l0 0c-18,18 -29,43 -29,70 0,27 11,52 29,70l0 0c18,18 43,29 71,29 27,0 52,-11 70,-29 18,-18 29,-43 29,-70 0,-27 -11,-52 -29,-70l0 0z"/>
   </g>
   <rect class="fil4" transform="matrix(2.64845E-14 -1 1 2.64845E-14 2351.52 2395.01)" width="19.9961" height="99.9922"/>
  </g>
 </g>
</svg>
